<?xml version="1.0" encoding="UTF-8" standalone="no"?>
<!DOCTYPE svg PUBLIC "-//W3C//DTD SVG 1.1//EN"
 "http://www.w3.org/Graphics/SVG/1.1/DTD/svg11.dtd">
<!-- Generated by graphviz version 2.43.0 (0)
 -->
<!-- Title: systolic_array Pages: 1 -->
<svg width="1094pt" height="543pt"
 viewBox="0.00 0.00 1094.31 543.19" xmlns="http://www.w3.org/2000/svg" xmlns:xlink="http://www.w3.org/1999/xlink">
<g id="graph0" class="graph" transform="scale(1 1) rotate(0) translate(4 539.19)">
<title>systolic_array</title>
<polygon fill="white" stroke="transparent" points="-4,4 -4,-539.19 1090.31,-539.19 1090.31,4 -4,4"/>
<text text-anchor="middle" x="543.16" y="-7.8" font-family="Times,serif" font-size="14.00">systolic_array</text>
<!-- n1 -->
<g id="node1" class="node">
<title>n1</title>
<polygon fill="none" stroke="black" points="54,-509.73 54,-524.64 38.18,-535.19 15.82,-535.19 0,-524.64 0,-509.73 15.82,-499.19 38.18,-499.19 54,-509.73"/>
<text text-anchor="middle" x="27" y="-513.49" font-family="Times,serif" font-size="14.00">a1</text>
</g>
<!-- c20 -->
<g id="node15" class="node">
<title>c20</title>
<polygon fill="none" stroke="black" points="90,-421.19 90,-513.19 244,-513.19 244,-421.19 90,-421.19"/>
<text text-anchor="middle" x="113" y="-497.99" font-family="Times,serif" font-size="14.00">a_in</text>
<polyline fill="none" stroke="black" points="90,-490.19 136,-490.19 "/>
<text text-anchor="middle" x="113" y="-474.99" font-family="Times,serif" font-size="14.00">b_in</text>
<polyline fill="none" stroke="black" points="90,-467.19 136,-467.19 "/>
<text text-anchor="middle" x="113" y="-451.99" font-family="Times,serif" font-size="14.00">clk</text>
<polyline fill="none" stroke="black" points="90,-444.19 136,-444.19 "/>
<text text-anchor="middle" x="113" y="-428.99" font-family="Times,serif" font-size="14.00">rst</text>
<polyline fill="none" stroke="black" points="136,-421.19 136,-513.19 "/>
<text text-anchor="middle" x="162" y="-470.99" font-family="Times,serif" font-size="14.00">pe11</text>
<text text-anchor="middle" x="162" y="-455.99" font-family="Times,serif" font-size="14.00">pe</text>
<polyline fill="none" stroke="black" points="188,-421.19 188,-513.19 "/>
<text text-anchor="middle" x="216" y="-494.49" font-family="Times,serif" font-size="14.00">a_out</text>
<polyline fill="none" stroke="black" points="188,-483.19 244,-483.19 "/>
<text text-anchor="middle" x="216" y="-463.99" font-family="Times,serif" font-size="14.00">b_out</text>
<polyline fill="none" stroke="black" points="188,-452.19 244,-452.19 "/>
<text text-anchor="middle" x="216" y="-432.99" font-family="Times,serif" font-size="14.00">c</text>
</g>
<!-- n1&#45;&gt;c20 -->
<g id="edge1" class="edge">
<title>n1:e&#45;&gt;c20:w</title>
<path fill="none" stroke="black" stroke-width="3" d="M54,-517.19C67.27,-517.19 71.16,-508.4 80.04,-504.27"/>
<polygon fill="black" stroke="black" stroke-width="3" points="80.93,-507.66 90,-502.19 79.49,-500.81 80.93,-507.66"/>
</g>
<!-- n2 -->
<g id="node2" class="node">
<title>n2</title>
<polygon fill="none" stroke="black" points="361.8,-326.19 280.19,-308.19 361.8,-290.19 443.42,-308.19 361.8,-326.19"/>
<text text-anchor="middle" x="361.8" y="-304.49" font-family="Times,serif" font-size="14.00">a11_to_12</text>
</g>
<!-- c21 -->
<g id="node16" class="node">
<title>c21</title>
<polygon fill="none" stroke="black" points="479.61,-120.19 479.61,-212.19 633.61,-212.19 633.61,-120.19 479.61,-120.19"/>
<text text-anchor="middle" x="502.61" y="-196.99" font-family="Times,serif" font-size="14.00">a_in</text>
<polyline fill="none" stroke="black" points="479.61,-189.19 525.61,-189.19 "/>
<text text-anchor="middle" x="502.61" y="-173.99" font-family="Times,serif" font-size="14.00">b_in</text>
<polyline fill="none" stroke="black" points="479.61,-166.19 525.61,-166.19 "/>
<text text-anchor="middle" x="502.61" y="-150.99" font-family="Times,serif" font-size="14.00">clk</text>
<polyline fill="none" stroke="black" points="479.61,-143.19 525.61,-143.19 "/>
<text text-anchor="middle" x="502.61" y="-127.99" font-family="Times,serif" font-size="14.00">rst</text>
<polyline fill="none" stroke="black" points="525.61,-120.19 525.61,-212.19 "/>
<text text-anchor="middle" x="551.61" y="-169.99" font-family="Times,serif" font-size="14.00">pe12</text>
<text text-anchor="middle" x="551.61" y="-154.99" font-family="Times,serif" font-size="14.00">pe</text>
<polyline fill="none" stroke="black" points="577.61,-120.19 577.61,-212.19 "/>
<text text-anchor="middle" x="605.61" y="-185.49" font-family="Times,serif" font-size="14.00">b_out</text>
<polyline fill="none" stroke="black" points="577.61,-166.19 633.61,-166.19 "/>
<text text-anchor="middle" x="605.61" y="-139.49" font-family="Times,serif" font-size="14.00">c</text>
</g>
<!-- n2&#45;&gt;c21 -->
<g id="edge14" class="edge">
<title>n2:e&#45;&gt;c21:w</title>
<path fill="none" stroke="black" stroke-width="3" d="M443.61,-308.19C489.67,-308.19 439.22,-218.02 469.45,-203.23"/>
<polygon fill="black" stroke="black" stroke-width="3" points="470.5,-206.59 479.61,-201.19 469.12,-199.73 470.5,-206.59"/>
</g>
<!-- n3 -->
<g id="node3" class="node">
<title>n3</title>
<polygon fill="none" stroke="black" points="388.8,-484.73 388.8,-499.64 372.99,-510.19 350.62,-510.19 334.8,-499.64 334.8,-484.73 350.62,-474.19 372.99,-474.19 388.8,-484.73"/>
<text text-anchor="middle" x="361.8" y="-488.49" font-family="Times,serif" font-size="14.00">a2</text>
</g>
<!-- c22 -->
<g id="node17" class="node">
<title>c22</title>
<polygon fill="none" stroke="black" points="480.11,-358.19 480.11,-450.19 633.11,-450.19 633.11,-358.19 480.11,-358.19"/>
<text text-anchor="middle" x="503.11" y="-434.99" font-family="Times,serif" font-size="14.00">a_in</text>
<polyline fill="none" stroke="black" points="480.11,-427.19 526.11,-427.19 "/>
<text text-anchor="middle" x="503.11" y="-411.99" font-family="Times,serif" font-size="14.00">b_in</text>
<polyline fill="none" stroke="black" points="480.11,-404.19 526.11,-404.19 "/>
<text text-anchor="middle" x="503.11" y="-388.99" font-family="Times,serif" font-size="14.00">clk</text>
<polyline fill="none" stroke="black" points="480.11,-381.19 526.11,-381.19 "/>
<text text-anchor="middle" x="503.11" y="-365.99" font-family="Times,serif" font-size="14.00">rst</text>
<polyline fill="none" stroke="black" points="526.11,-358.19 526.11,-450.19 "/>
<text text-anchor="middle" x="552.11" y="-407.99" font-family="Times,serif" font-size="14.00">pe21</text>
<text text-anchor="middle" x="552.11" y="-392.99" font-family="Times,serif" font-size="14.00">pe</text>
<polyline fill="none" stroke="black" points="578.11,-358.19 578.11,-450.19 "/>
<text text-anchor="middle" x="605.61" y="-423.49" font-family="Times,serif" font-size="14.00">a_out</text>
<polyline fill="none" stroke="black" points="578.11,-404.19 633.11,-404.19 "/>
<text text-anchor="middle" x="605.61" y="-377.49" font-family="Times,serif" font-size="14.00">c</text>
</g>
<!-- n3&#45;&gt;c22 -->
<g id="edge15" class="edge">
<title>n3:e&#45;&gt;c22:w</title>
<path fill="none" stroke="black" stroke-width="3" d="M389.8,-492.19C416.56,-492.19 420.73,-479.07 443.61,-465.19 456.92,-457.11 459.35,-445.59 469.48,-441.09"/>
<polygon fill="black" stroke="black" stroke-width="3" points="470.43,-444.48 479.61,-439.19 469.14,-437.6 470.43,-444.48"/>
</g>
<!-- n4 -->
<g id="node4" class="node">
<title>n4</title>
<polygon fill="none" stroke="black" points="751.41,-445.19 669.8,-427.19 751.41,-409.19 833.03,-427.19 751.41,-445.19"/>
<text text-anchor="middle" x="751.41" y="-423.49" font-family="Times,serif" font-size="14.00">a21_to_22</text>
</g>
<!-- c23 -->
<g id="node18" class="node">
<title>c23</title>
<polygon fill="none" stroke="black" points="869.22,-87.19 869.22,-179.19 991.22,-179.19 991.22,-87.19 869.22,-87.19"/>
<text text-anchor="middle" x="892.22" y="-163.99" font-family="Times,serif" font-size="14.00">a_in</text>
<polyline fill="none" stroke="black" points="869.22,-156.19 915.22,-156.19 "/>
<text text-anchor="middle" x="892.22" y="-140.99" font-family="Times,serif" font-size="14.00">b_in</text>
<polyline fill="none" stroke="black" points="869.22,-133.19 915.22,-133.19 "/>
<text text-anchor="middle" x="892.22" y="-117.99" font-family="Times,serif" font-size="14.00">clk</text>
<polyline fill="none" stroke="black" points="869.22,-110.19 915.22,-110.19 "/>
<text text-anchor="middle" x="892.22" y="-94.99" font-family="Times,serif" font-size="14.00">rst</text>
<polyline fill="none" stroke="black" points="915.22,-87.19 915.22,-179.19 "/>
<text text-anchor="middle" x="941.22" y="-136.99" font-family="Times,serif" font-size="14.00">pe22</text>
<text text-anchor="middle" x="941.22" y="-121.99" font-family="Times,serif" font-size="14.00">pe</text>
<polyline fill="none" stroke="black" points="967.22,-87.19 967.22,-179.19 "/>
<text text-anchor="middle" x="979.22" y="-129.49" font-family="Times,serif" font-size="14.00">c</text>
</g>
<!-- n4&#45;&gt;c23 -->
<g id="edge17" class="edge">
<title>n4:e&#45;&gt;c23:w</title>
<path fill="none" stroke="black" stroke-width="3" d="M833.22,-427.19C887.47,-427.19 821.16,-201.45 859.39,-171.46"/>
<polygon fill="black" stroke="black" stroke-width="3" points="860.84,-174.67 869.22,-168.19 858.63,-168.03 860.84,-174.67"/>
</g>
<!-- n5 -->
<g id="node5" class="node">
<title>n5</title>
<polygon fill="none" stroke="black" points="54,-455.73 54,-470.64 38.18,-481.19 15.82,-481.19 0,-470.64 0,-455.73 15.82,-445.19 38.18,-445.19 54,-455.73"/>
<text text-anchor="middle" x="27" y="-459.49" font-family="Times,serif" font-size="14.00">b1</text>
</g>
<!-- n5&#45;&gt;c20 -->
<g id="edge18" class="edge">
<title>n5:e&#45;&gt;c20:w</title>
<path fill="none" stroke="black" stroke-width="3" d="M54,-463.19C67.41,-463.19 71.12,-472.57 79.99,-476.96"/>
<polygon fill="black" stroke="black" stroke-width="3" points="79.48,-480.44 90,-479.19 81,-473.6 79.48,-480.44"/>
</g>
<!-- n6 -->
<g id="node6" class="node">
<title>n6</title>
<polygon fill="none" stroke="black" points="361.8,-456.19 280.19,-438.19 361.8,-420.19 443.42,-438.19 361.8,-456.19"/>
<text text-anchor="middle" x="361.8" y="-434.49" font-family="Times,serif" font-size="14.00">b11_to_21</text>
</g>
<!-- n6&#45;&gt;c22 -->
<g id="edge20" class="edge">
<title>n6:e&#45;&gt;c22:w</title>
<path fill="none" stroke="black" stroke-width="3" d="M443.61,-438.19C458.26,-438.19 460.55,-424.76 469.79,-418.89"/>
<polygon fill="black" stroke="black" stroke-width="3" points="470.89,-422.21 479.61,-416.19 469.04,-415.46 470.89,-422.21"/>
</g>
<!-- n7 -->
<g id="node7" class="node">
<title>n7</title>
<polygon fill="none" stroke="black" points="751.41,-207.19 669.8,-189.19 751.41,-171.19 833.03,-189.19 751.41,-207.19"/>
<text text-anchor="middle" x="751.41" y="-185.49" font-family="Times,serif" font-size="14.00">b12_to_22</text>
</g>
<!-- n7&#45;&gt;c23 -->
<g id="edge22" class="edge">
<title>n7:e&#45;&gt;c23:w</title>
<path fill="none" stroke="black" stroke-width="3" d="M833.22,-189.19C854.34,-189.19 847.65,-158.44 859.65,-148.35"/>
<polygon fill="black" stroke="black" stroke-width="3" points="860.82,-151.65 869.22,-145.19 858.63,-145 860.82,-151.65"/>
</g>
<!-- n8 -->
<g id="node8" class="node">
<title>n8</title>
<polygon fill="none" stroke="black" points="388.8,-246.73 388.8,-261.64 372.99,-272.19 350.62,-272.19 334.8,-261.64 334.8,-246.73 350.62,-236.19 372.99,-236.19 388.8,-246.73"/>
<text text-anchor="middle" x="361.8" y="-250.49" font-family="Times,serif" font-size="14.00">b2</text>
</g>
<!-- n8&#45;&gt;c21 -->
<g id="edge23" class="edge">
<title>n8:e&#45;&gt;c21:w</title>
<path fill="none" stroke="black" stroke-width="3" d="M389.8,-254.19C416.56,-254.19 423.17,-244.45 443.61,-227.19 461.03,-212.48 455.45,-187.71 469.51,-180.33"/>
<polygon fill="black" stroke="black" stroke-width="3" points="470.55,-183.68 479.61,-178.19 469.1,-176.83 470.55,-183.68"/>
</g>
<!-- n9 -->
<g id="node9" class="node">
<title>n9</title>
<polygon fill="none" stroke="black" points="391.4,-192.73 391.4,-207.64 374.06,-218.19 349.55,-218.19 332.21,-207.64 332.21,-192.73 349.55,-182.19 374.06,-182.19 391.4,-192.73"/>
<text text-anchor="middle" x="361.8" y="-196.49" font-family="Times,serif" font-size="14.00">c11</text>
</g>
<!-- n10 -->
<g id="node10" class="node">
<title>n10</title>
<polygon fill="none" stroke="black" points="781.01,-127.73 781.01,-142.64 763.67,-153.19 739.16,-153.19 721.82,-142.64 721.82,-127.73 739.16,-117.19 763.67,-117.19 781.01,-127.73"/>
<text text-anchor="middle" x="751.41" y="-131.49" font-family="Times,serif" font-size="14.00">c12</text>
</g>
<!-- n11 -->
<g id="node11" class="node">
<title>n11</title>
<polygon fill="none" stroke="black" points="781.01,-365.73 781.01,-380.64 763.67,-391.19 739.16,-391.19 721.82,-380.64 721.82,-365.73 739.16,-355.19 763.67,-355.19 781.01,-365.73"/>
<text text-anchor="middle" x="751.41" y="-369.49" font-family="Times,serif" font-size="14.00">c21</text>
</g>
<!-- n12 -->
<g id="node12" class="node">
<title>n12</title>
<polygon fill="none" stroke="black" points="1086.36,-125.73 1086.36,-140.64 1069.02,-151.19 1044.51,-151.19 1027.17,-140.64 1027.17,-125.73 1044.51,-115.19 1069.02,-115.19 1086.36,-125.73"/>
<text text-anchor="middle" x="1056.77" y="-129.49" font-family="Times,serif" font-size="14.00">c22</text>
</g>
<!-- n13 -->
<g id="node13" class="node">
<title>n13</title>
<polygon fill="none" stroke="black" points="54,-273.73 54,-288.64 38.18,-299.19 15.82,-299.19 0,-288.64 0,-273.73 15.82,-263.19 38.18,-263.19 54,-273.73"/>
<text text-anchor="middle" x="27" y="-277.49" font-family="Times,serif" font-size="14.00">clk</text>
</g>
<!-- n13&#45;&gt;c20 -->
<g id="edge5" class="edge">
<title>n13:e&#45;&gt;c20:w</title>
<path fill="none" stroke="black" d="M54,-281.19C129.12,-281.19 22.46,-438.61 79.82,-453.98"/>
<polygon fill="black" stroke="black" points="79.66,-457.49 90,-455.19 80.48,-450.54 79.66,-457.49"/>
</g>
<!-- n13&#45;&gt;c21 -->
<g id="edge6" class="edge">
<title>n13:e&#45;&gt;c21:w</title>
<path fill="none" stroke="black" d="M54,-281.19C165.32,-281.19 172.72,-202.92 280,-173.19 362.53,-150.32 388.48,-153.86 469.45,-154.17"/>
<polygon fill="black" stroke="black" points="469.6,-157.67 479.61,-154.19 469.62,-150.67 469.6,-157.67"/>
</g>
<!-- n13&#45;&gt;c22 -->
<g id="edge7" class="edge">
<title>n13:e&#45;&gt;c22:w</title>
<path fill="none" stroke="black" d="M54,-281.19C95.85,-281.19 55.94,-343.88 90,-368.19 157.98,-416.72 375.85,-394.04 469.37,-392.29"/>
<polygon fill="black" stroke="black" points="469.65,-395.79 479.61,-392.19 469.58,-388.79 469.65,-395.79"/>
</g>
<!-- n13&#45;&gt;c23 -->
<g id="edge8" class="edge">
<title>n13:e&#45;&gt;c23:w</title>
<path fill="none" stroke="black" d="M54,-281.19C100.4,-281.19 57.48,-216.29 90,-183.19 180.46,-91.1 231.72,-78.19 360.8,-78.19 360.8,-78.19 360.8,-78.19 557.61,-78.19 680.83,-78.19 713.18,-80.4 833.22,-108.19 845.91,-111.13 850.3,-117.19 859.29,-119.87"/>
<polygon fill="black" stroke="black" points="858.85,-123.34 869.22,-121.19 859.77,-116.4 858.85,-123.34"/>
</g>
<!-- n14 -->
<g id="node14" class="node">
<title>n14</title>
<polygon fill="none" stroke="black" points="54,-164.73 54,-179.64 38.18,-190.19 15.82,-190.19 0,-179.64 0,-164.73 15.82,-154.19 38.18,-154.19 54,-164.73"/>
<text text-anchor="middle" x="27" y="-168.49" font-family="Times,serif" font-size="14.00">rst</text>
</g>
<!-- n14&#45;&gt;c20 -->
<g id="edge9" class="edge">
<title>n14:e&#45;&gt;c20:w</title>
<path fill="none" stroke="black" d="M54,-172.19C108.46,-172.19 41.77,-398.8 80.14,-428.9"/>
<polygon fill="black" stroke="black" points="79.41,-432.35 90,-432.19 81.62,-425.71 79.41,-432.35"/>
</g>
<!-- n14&#45;&gt;c21 -->
<g id="edge10" class="edge">
<title>n14:e&#45;&gt;c21:w</title>
<path fill="none" stroke="black" d="M54,-172.19C75.41,-172.19 70.08,-148.03 90,-140.19 248.03,-78.01 304.21,-129.11 469.59,-131.13"/>
<polygon fill="black" stroke="black" points="469.59,-134.63 479.61,-131.19 469.63,-127.63 469.59,-134.63"/>
</g>
<!-- n14&#45;&gt;c22 -->
<g id="edge11" class="edge">
<title>n14:e&#45;&gt;c22:w</title>
<path fill="none" stroke="black" d="M54,-172.19C177.84,-172.19 165.78,-287.33 280,-335.19 359.84,-368.64 387.51,-369.2 469.6,-369.19"/>
<polygon fill="black" stroke="black" points="469.61,-372.69 479.61,-369.19 469.61,-365.69 469.61,-372.69"/>
</g>
<!-- n14&#45;&gt;c23 -->
<g id="edge12" class="edge">
<title>n14:e&#45;&gt;c23:w</title>
<path fill="none" stroke="black" d="M54,-172.19C104.6,-172.19 50.3,-95.56 90,-64.19 184.8,10.72 239.98,-40.19 360.8,-40.19 360.8,-40.19 360.8,-40.19 557.61,-40.19 680.57,-40.19 721.04,-13.84 833.22,-64.19 849.53,-71.51 848.57,-89.38 859.45,-95.82"/>
<polygon fill="black" stroke="black" points="858.68,-99.24 869.22,-98.19 860.32,-92.43 858.68,-99.24"/>
</g>
<!-- c20&#45;&gt;n2 -->
<g id="edge13" class="edge">
<title>c20:e&#45;&gt;n2:w</title>
<path fill="none" stroke="black" stroke-width="3" d="M244,-498.19C326.09,-498.19 205.81,-324.88 269.72,-309.3"/>
<polygon fill="black" stroke="black" stroke-width="3" points="270.44,-312.75 280,-308.19 269.68,-305.79 270.44,-312.75"/>
</g>
<!-- c20&#45;&gt;n6 -->
<g id="edge19" class="edge">
<title>c20:e&#45;&gt;n6:w</title>
<path fill="none" stroke="black" stroke-width="3" d="M244,-468.19C260.76,-468.19 260.37,-448.76 270.43,-441.17"/>
<polygon fill="black" stroke="black" stroke-width="3" points="271.5,-444.51 280,-438.19 269.41,-437.83 271.5,-444.51"/>
</g>
<!-- c20&#45;&gt;n9 -->
<g id="edge24" class="edge">
<title>c20:e&#45;&gt;n9:w</title>
<path fill="none" stroke="black" stroke-width="3" d="M244,-436.19C291.13,-436.19 252.37,-265.37 280,-227.19 292.82,-209.47 302.17,-202.31 320.62,-200.61"/>
<polygon fill="black" stroke="black" stroke-width="3" points="320.96,-204.1 330.8,-200.19 320.67,-197.1 320.96,-204.1"/>
</g>
<!-- c21&#45;&gt;n7 -->
<g id="edge21" class="edge">
<title>c21:e&#45;&gt;n7:w</title>
<path fill="none" stroke="black" stroke-width="3" d="M633.61,-189.19C645.61,-189.19 650.86,-189.19 659.48,-189.19"/>
<polygon fill="black" stroke="black" stroke-width="3" points="659.61,-192.69 669.61,-189.19 659.61,-185.69 659.61,-192.69"/>
</g>
<!-- c21&#45;&gt;n10 -->
<g id="edge2" class="edge">
<title>c21:e&#45;&gt;n10:w</title>
<path fill="none" stroke="black" stroke-width="3" d="M633.61,-143.19C668.72,-143.19 679.67,-136.62 710.25,-135.39"/>
<polygon fill="black" stroke="black" stroke-width="3" points="710.48,-138.88 720.41,-135.19 710.35,-131.88 710.48,-138.88"/>
</g>
<!-- c22&#45;&gt;n4 -->
<g id="edge16" class="edge">
<title>c22:e&#45;&gt;n4:w</title>
<path fill="none" stroke="black" stroke-width="3" d="M633.61,-427.19C645.61,-427.19 650.86,-427.19 659.48,-427.19"/>
<polygon fill="black" stroke="black" stroke-width="3" points="659.61,-430.69 669.61,-427.19 659.61,-423.69 659.61,-430.69"/>
</g>
<!-- c22&#45;&gt;n11 -->
<g id="edge3" class="edge">
<title>c22:e&#45;&gt;n11:w</title>
<path fill="none" stroke="black" stroke-width="3" d="M633.61,-381.19C668.72,-381.19 679.67,-374.62 710.25,-373.39"/>
<polygon fill="black" stroke="black" stroke-width="3" points="710.48,-376.88 720.41,-373.19 710.35,-369.88 710.48,-376.88"/>
</g>
<!-- c23&#45;&gt;n12 -->
<g id="edge4" class="edge">
<title>c23:e&#45;&gt;n12:w</title>
<path fill="none" stroke="black" stroke-width="3" d="M991.22,-133.19C1003.22,-133.19 1008.47,-133.19 1017.09,-133.19"/>
<polygon fill="black" stroke="black" stroke-width="3" points="1017.22,-136.69 1027.22,-133.19 1017.22,-129.69 1017.22,-136.69"/>
</g>
</g>
</svg>
