<?xml version="1.0" encoding="UTF-8" standalone="no"?>
<!DOCTYPE svg PUBLIC "-//W3C//DTD SVG 1.1//EN"
 "http://www.w3.org/Graphics/SVG/1.1/DTD/svg11.dtd">
<!-- Generated by graphviz version 2.43.0 (0)
 -->
<!-- Title: systolic_array Pages: 1 -->
<svg width="1163pt" height="615pt"
 viewBox="0.00 0.00 1163.48 615.02" xmlns="http://www.w3.org/2000/svg" xmlns:xlink="http://www.w3.org/1999/xlink">
<g id="graph0" class="graph" transform="scale(1 1) rotate(0) translate(4 611.02)">
<title>systolic_array</title>
<polygon fill="white" stroke="transparent" points="-4,4 -4,-611.02 1159.48,-611.02 1159.48,4 -4,4"/>
<text text-anchor="middle" x="577.74" y="-7.8" font-family="Times,serif" font-size="14.00">systolic_array</text>
<!-- n1 -->
<g id="node1" class="node">
<title>n1</title>
<polygon fill="none" stroke="black" points="782.58,-427.02 700.97,-409.02 782.58,-391.02 864.19,-409.02 782.58,-427.02"/>
<text text-anchor="middle" x="782.58" y="-405.32" font-family="Times,serif" font-size="14.00">b12_to_22</text>
</g>
<!-- c21 -->
<g id="node18" class="node">
<title>c21</title>
<polygon fill="none" stroke="black" points="900.38,-136.52 900.38,-251.52 1060.38,-251.52 1060.38,-136.52 900.38,-136.52"/>
<text text-anchor="middle" x="926.38" y="-236.32" font-family="Times,serif" font-size="14.00">a_in</text>
<polyline fill="none" stroke="black" points="900.38,-228.52 952.38,-228.52 "/>
<text text-anchor="middle" x="926.38" y="-213.32" font-family="Times,serif" font-size="14.00">b_in</text>
<polyline fill="none" stroke="black" points="900.38,-205.52 952.38,-205.52 "/>
<text text-anchor="middle" x="926.38" y="-190.32" font-family="Times,serif" font-size="14.00">clear</text>
<polyline fill="none" stroke="black" points="900.38,-182.52 952.38,-182.52 "/>
<text text-anchor="middle" x="926.38" y="-167.32" font-family="Times,serif" font-size="14.00">clk</text>
<polyline fill="none" stroke="black" points="900.38,-159.52 952.38,-159.52 "/>
<text text-anchor="middle" x="926.38" y="-144.32" font-family="Times,serif" font-size="14.00">rst</text>
<polyline fill="none" stroke="black" points="952.38,-136.52 952.38,-251.52 "/>
<text text-anchor="middle" x="978.38" y="-197.82" font-family="Times,serif" font-size="14.00">pe22</text>
<text text-anchor="middle" x="978.38" y="-182.82" font-family="Times,serif" font-size="14.00">pe</text>
<polyline fill="none" stroke="black" points="1004.38,-136.52 1004.38,-251.52 "/>
<text text-anchor="middle" x="1032.38" y="-228.82" font-family="Times,serif" font-size="14.00">a_out</text>
<polyline fill="none" stroke="black" points="1004.38,-213.52 1060.38,-213.52 "/>
<text text-anchor="middle" x="1032.38" y="-190.82" font-family="Times,serif" font-size="14.00">b_out</text>
<polyline fill="none" stroke="black" points="1004.38,-175.52 1060.38,-175.52 "/>
<text text-anchor="middle" x="1032.38" y="-152.32" font-family="Times,serif" font-size="14.00">c</text>
</g>
<!-- n1&#45;&gt;c21 -->
<g id="edge2" class="edge">
<title>n1:e&#45;&gt;c21:w</title>
<path fill="none" stroke="black" stroke-width="3" d="M864.38,-409.02C947.47,-409.02 824.98,-233.17 890.4,-218.06"/>
<polygon fill="black" stroke="black" stroke-width="3" points="890.8,-221.53 900.38,-217.02 890.08,-214.57 890.8,-221.53"/>
</g>
<!-- n2 -->
<g id="node2" class="node">
<title>n2</title>
<polygon fill="none" stroke="black" points="386.97,-433.02 305.36,-415.02 386.97,-397.02 468.58,-415.02 386.97,-433.02"/>
<text text-anchor="middle" x="386.97" y="-411.32" font-family="Times,serif" font-size="14.00">b11_to_21</text>
</g>
<!-- c22 -->
<g id="node20" class="node">
<title>c22</title>
<polygon fill="none" stroke="black" points="504.77,-127.52 504.77,-242.52 664.77,-242.52 664.77,-127.52 504.77,-127.52"/>
<text text-anchor="middle" x="530.77" y="-227.32" font-family="Times,serif" font-size="14.00">a_in</text>
<polyline fill="none" stroke="black" points="504.77,-219.52 556.77,-219.52 "/>
<text text-anchor="middle" x="530.77" y="-204.32" font-family="Times,serif" font-size="14.00">b_in</text>
<polyline fill="none" stroke="black" points="504.77,-196.52 556.77,-196.52 "/>
<text text-anchor="middle" x="530.77" y="-181.32" font-family="Times,serif" font-size="14.00">clear</text>
<polyline fill="none" stroke="black" points="504.77,-173.52 556.77,-173.52 "/>
<text text-anchor="middle" x="530.77" y="-158.32" font-family="Times,serif" font-size="14.00">clk</text>
<polyline fill="none" stroke="black" points="504.77,-150.52 556.77,-150.52 "/>
<text text-anchor="middle" x="530.77" y="-135.32" font-family="Times,serif" font-size="14.00">rst</text>
<polyline fill="none" stroke="black" points="556.77,-127.52 556.77,-242.52 "/>
<text text-anchor="middle" x="582.77" y="-188.82" font-family="Times,serif" font-size="14.00">pe21</text>
<text text-anchor="middle" x="582.77" y="-173.82" font-family="Times,serif" font-size="14.00">pe</text>
<polyline fill="none" stroke="black" points="608.77,-127.52 608.77,-242.52 "/>
<text text-anchor="middle" x="636.77" y="-219.82" font-family="Times,serif" font-size="14.00">a_out</text>
<polyline fill="none" stroke="black" points="608.77,-204.52 664.77,-204.52 "/>
<text text-anchor="middle" x="636.77" y="-181.82" font-family="Times,serif" font-size="14.00">b_out</text>
<polyline fill="none" stroke="black" points="608.77,-166.52 664.77,-166.52 "/>
<text text-anchor="middle" x="636.77" y="-143.32" font-family="Times,serif" font-size="14.00">c</text>
</g>
<!-- n2&#45;&gt;c22 -->
<g id="edge19" class="edge">
<title>n2:e&#45;&gt;c22:w</title>
<path fill="none" stroke="black" stroke-width="3" d="M468.77,-415.02C558.32,-415.02 423.35,-224.66 494.48,-209.04"/>
<polygon fill="black" stroke="black" stroke-width="3" points="495.17,-212.49 504.77,-208.02 494.48,-205.52 495.17,-212.49"/>
</g>
<!-- n3 -->
<g id="node3" class="node">
<title>n3</title>
<polygon fill="none" stroke="black" points="782.58,-258.02 700.97,-240.02 782.58,-222.02 864.19,-240.02 782.58,-258.02"/>
<text text-anchor="middle" x="782.58" y="-236.32" font-family="Times,serif" font-size="14.00">a21_to_22</text>
</g>
<!-- n3&#45;&gt;c21 -->
<g id="edge21" class="edge">
<title>n3:e&#45;&gt;c21:w</title>
<path fill="none" stroke="black" stroke-width="3" d="M864.38,-240.02C876.38,-240.02 881.63,-240.02 890.26,-240.02"/>
<polygon fill="black" stroke="black" stroke-width="3" points="890.38,-243.52 900.38,-240.02 890.38,-236.52 890.38,-243.52"/>
</g>
<!-- n4 -->
<g id="node4" class="node">
<title>n4</title>
<polygon fill="none" stroke="black" points="386.97,-579.02 305.36,-561.02 386.97,-543.02 468.58,-561.02 386.97,-579.02"/>
<text text-anchor="middle" x="386.97" y="-557.32" font-family="Times,serif" font-size="14.00">a11_to_12</text>
</g>
<!-- c23 -->
<g id="node22" class="node">
<title>c23</title>
<polygon fill="none" stroke="black" points="504.77,-358.52 504.77,-473.52 664.77,-473.52 664.77,-358.52 504.77,-358.52"/>
<text text-anchor="middle" x="530.77" y="-458.32" font-family="Times,serif" font-size="14.00">a_in</text>
<polyline fill="none" stroke="black" points="504.77,-450.52 556.77,-450.52 "/>
<text text-anchor="middle" x="530.77" y="-435.32" font-family="Times,serif" font-size="14.00">b_in</text>
<polyline fill="none" stroke="black" points="504.77,-427.52 556.77,-427.52 "/>
<text text-anchor="middle" x="530.77" y="-412.32" font-family="Times,serif" font-size="14.00">clear</text>
<polyline fill="none" stroke="black" points="504.77,-404.52 556.77,-404.52 "/>
<text text-anchor="middle" x="530.77" y="-389.32" font-family="Times,serif" font-size="14.00">clk</text>
<polyline fill="none" stroke="black" points="504.77,-381.52 556.77,-381.52 "/>
<text text-anchor="middle" x="530.77" y="-366.32" font-family="Times,serif" font-size="14.00">rst</text>
<polyline fill="none" stroke="black" points="556.77,-358.52 556.77,-473.52 "/>
<text text-anchor="middle" x="582.77" y="-419.82" font-family="Times,serif" font-size="14.00">pe12</text>
<text text-anchor="middle" x="582.77" y="-404.82" font-family="Times,serif" font-size="14.00">pe</text>
<polyline fill="none" stroke="black" points="608.77,-358.52 608.77,-473.52 "/>
<text text-anchor="middle" x="636.77" y="-450.82" font-family="Times,serif" font-size="14.00">a_out</text>
<polyline fill="none" stroke="black" points="608.77,-435.52 664.77,-435.52 "/>
<text text-anchor="middle" x="636.77" y="-412.82" font-family="Times,serif" font-size="14.00">b_out</text>
<polyline fill="none" stroke="black" points="608.77,-397.52 664.77,-397.52 "/>
<text text-anchor="middle" x="636.77" y="-374.32" font-family="Times,serif" font-size="14.00">c</text>
</g>
<!-- n4&#45;&gt;c23 -->
<g id="edge23" class="edge">
<title>n4:e&#45;&gt;c23:w</title>
<path fill="none" stroke="black" stroke-width="3" d="M468.77,-561.02C511.57,-561.02 467.09,-478.31 494.88,-464.09"/>
<polygon fill="black" stroke="black" stroke-width="3" points="495.7,-467.5 504.77,-462.02 494.27,-460.64 495.7,-467.5"/>
</g>
<!-- n5 -->
<g id="node5" class="node">
<title>n5</title>
<polygon fill="none" stroke="black" points="1155.52,-133.57 1155.52,-148.48 1138.19,-159.02 1113.67,-159.02 1096.34,-148.48 1096.34,-133.57 1113.67,-123.02 1138.19,-123.02 1155.52,-133.57"/>
<text text-anchor="middle" x="1125.93" y="-137.32" font-family="Times,serif" font-size="14.00">c22</text>
</g>
<!-- n6 -->
<g id="node6" class="node">
<title>n6</title>
<polygon fill="none" stroke="black" points="812.17,-124.57 812.17,-139.48 794.84,-150.02 770.32,-150.02 752.98,-139.48 752.98,-124.57 770.32,-114.02 794.84,-114.02 812.17,-124.57"/>
<text text-anchor="middle" x="782.58" y="-128.32" font-family="Times,serif" font-size="14.00">c21</text>
</g>
<!-- n7 -->
<g id="node7" class="node">
<title>n7</title>
<polygon fill="none" stroke="black" points="812.17,-347.57 812.17,-362.48 794.84,-373.02 770.32,-373.02 752.98,-362.48 752.98,-347.57 770.32,-337.02 794.84,-337.02 812.17,-347.57"/>
<text text-anchor="middle" x="782.58" y="-351.32" font-family="Times,serif" font-size="14.00">c12</text>
</g>
<!-- n8 -->
<g id="node8" class="node">
<title>n8</title>
<polygon fill="none" stroke="black" points="416.56,-353.57 416.56,-368.48 399.23,-379.02 374.71,-379.02 357.37,-368.48 357.37,-353.57 374.71,-343.02 399.23,-343.02 416.56,-353.57"/>
<text text-anchor="middle" x="386.97" y="-357.32" font-family="Times,serif" font-size="14.00">c11</text>
</g>
<!-- n9 -->
<g id="node9" class="node">
<title>n9</title>
<polygon fill="none" stroke="black" points="413.97,-499.57 413.97,-514.48 398.15,-525.02 375.78,-525.02 359.97,-514.48 359.97,-499.57 375.78,-489.02 398.15,-489.02 413.97,-499.57"/>
<text text-anchor="middle" x="386.97" y="-503.32" font-family="Times,serif" font-size="14.00">b2</text>
</g>
<!-- n9&#45;&gt;c23 -->
<g id="edge28" class="edge">
<title>n9:e&#45;&gt;c23:w</title>
<path fill="none" stroke="black" stroke-width="3" d="M414.97,-507.02C442.79,-507.02 446.81,-492.1 468.77,-475.02 483.43,-463.63 483.04,-446.7 494.92,-440.99"/>
<polygon fill="black" stroke="black" stroke-width="3" points="495.65,-444.41 504.77,-439.02 494.28,-437.55 495.65,-444.41"/>
</g>
<!-- n10 -->
<g id="node10" class="node">
<title>n10</title>
<polygon fill="none" stroke="black" points="63.58,-333.57 63.58,-348.48 47.77,-359.02 25.4,-359.02 9.58,-348.48 9.58,-333.57 25.4,-323.02 47.77,-323.02 63.58,-333.57"/>
<text text-anchor="middle" x="36.58" y="-337.32" font-family="Times,serif" font-size="14.00">b1</text>
</g>
<!-- c24 -->
<g id="node23" class="node">
<title>c24</title>
<polygon fill="none" stroke="black" points="109.16,-279.52 109.16,-394.52 269.16,-394.52 269.16,-279.52 109.16,-279.52"/>
<text text-anchor="middle" x="135.16" y="-379.32" font-family="Times,serif" font-size="14.00">a_in</text>
<polyline fill="none" stroke="black" points="109.16,-371.52 161.16,-371.52 "/>
<text text-anchor="middle" x="135.16" y="-356.32" font-family="Times,serif" font-size="14.00">b_in</text>
<polyline fill="none" stroke="black" points="109.16,-348.52 161.16,-348.52 "/>
<text text-anchor="middle" x="135.16" y="-333.32" font-family="Times,serif" font-size="14.00">clear</text>
<polyline fill="none" stroke="black" points="109.16,-325.52 161.16,-325.52 "/>
<text text-anchor="middle" x="135.16" y="-310.32" font-family="Times,serif" font-size="14.00">clk</text>
<polyline fill="none" stroke="black" points="109.16,-302.52 161.16,-302.52 "/>
<text text-anchor="middle" x="135.16" y="-287.32" font-family="Times,serif" font-size="14.00">rst</text>
<polyline fill="none" stroke="black" points="161.16,-279.52 161.16,-394.52 "/>
<text text-anchor="middle" x="187.16" y="-340.82" font-family="Times,serif" font-size="14.00">pe11</text>
<text text-anchor="middle" x="187.16" y="-325.82" font-family="Times,serif" font-size="14.00">pe</text>
<polyline fill="none" stroke="black" points="213.16,-279.52 213.16,-394.52 "/>
<text text-anchor="middle" x="241.16" y="-371.82" font-family="Times,serif" font-size="14.00">a_out</text>
<polyline fill="none" stroke="black" points="213.16,-356.52 269.16,-356.52 "/>
<text text-anchor="middle" x="241.16" y="-333.82" font-family="Times,serif" font-size="14.00">b_out</text>
<polyline fill="none" stroke="black" points="213.16,-318.52 269.16,-318.52 "/>
<text text-anchor="middle" x="241.16" y="-295.32" font-family="Times,serif" font-size="14.00">c</text>
</g>
<!-- n10&#45;&gt;c24 -->
<g id="edge3" class="edge">
<title>n10:e&#45;&gt;c24:w</title>
<path fill="none" stroke="black" stroke-width="3" d="M64.58,-341.02C82.25,-341.02 86.44,-353.81 99.26,-358.4"/>
<polygon fill="black" stroke="black" stroke-width="3" points="98.73,-361.86 109.16,-360.02 99.86,-354.96 98.73,-361.86"/>
</g>
<!-- n11 -->
<g id="node11" class="node">
<title>n11</title>
<polygon fill="none" stroke="black" points="413.97,-223.57 413.97,-238.48 398.15,-249.02 375.78,-249.02 359.97,-238.48 359.97,-223.57 375.78,-213.02 398.15,-213.02 413.97,-223.57"/>
<text text-anchor="middle" x="386.97" y="-227.32" font-family="Times,serif" font-size="14.00">a2</text>
</g>
<!-- n11&#45;&gt;c22 -->
<g id="edge4" class="edge">
<title>n11:e&#45;&gt;c22:w</title>
<path fill="none" stroke="black" stroke-width="3" d="M414.97,-231.02C451.3,-231.02 462.83,-231.02 494.7,-231.02"/>
<polygon fill="black" stroke="black" stroke-width="3" points="494.77,-234.52 504.77,-231.02 494.77,-227.52 494.77,-234.52"/>
</g>
<!-- n12 -->
<g id="node12" class="node">
<title>n12</title>
<polygon fill="none" stroke="black" points="63.58,-387.57 63.58,-402.48 47.77,-413.02 25.4,-413.02 9.58,-402.48 9.58,-387.57 25.4,-377.02 47.77,-377.02 63.58,-387.57"/>
<text text-anchor="middle" x="36.58" y="-391.32" font-family="Times,serif" font-size="14.00">a1</text>
</g>
<!-- n12&#45;&gt;c24 -->
<g id="edge5" class="edge">
<title>n12:e&#45;&gt;c24:w</title>
<path fill="none" stroke="black" stroke-width="3" d="M64.58,-395.02C81.25,-395.02 86.72,-387.1 99.19,-384.13"/>
<polygon fill="black" stroke="black" stroke-width="3" points="99.61,-387.61 109.16,-383.02 98.84,-380.65 99.61,-387.61"/>
</g>
<!-- n13 -->
<g id="node13" class="node">
<title>n13</title>
<polygon fill="none" stroke="black" points="73.25,-232.57 73.25,-247.48 51.77,-258.02 21.4,-258.02 -0.08,-247.48 -0.08,-232.57 21.4,-222.02 51.77,-222.02 73.25,-232.57"/>
<text text-anchor="middle" x="36.58" y="-236.32" font-family="Times,serif" font-size="14.00">clear</text>
</g>
<!-- n13&#45;&gt;c21 -->
<g id="edge6" class="edge">
<title>n13:e&#45;&gt;c21:w</title>
<path fill="none" stroke="black" d="M73.16,-240.02C95.17,-240.02 90.45,-217.61 109.16,-206.02 188.06,-157.17 214.52,-153.92 305.16,-134.02 426.71,-107.35 761.21,-35.46 864.38,-105.02 896.45,-126.64 864.92,-182.17 890.48,-192.39"/>
<polygon fill="black" stroke="black" points="889.95,-195.85 900.38,-194.02 891.08,-188.95 889.95,-195.85"/>
</g>
<!-- n13&#45;&gt;c22 -->
<g id="edge7" class="edge">
<title>n13:e&#45;&gt;c22:w</title>
<path fill="none" stroke="black" d="M73.16,-240.02C99.25,-240.02 279.28,-207.26 305.16,-204.02 390.14,-193.4 413.83,-185.65 494.63,-185.06"/>
<polygon fill="black" stroke="black" points="494.79,-188.56 504.77,-185.02 494.76,-181.56 494.79,-188.56"/>
</g>
<!-- n13&#45;&gt;c23 -->
<g id="edge8" class="edge">
<title>n13:e&#45;&gt;c23:w</title>
<path fill="none" stroke="black" d="M73.16,-240.02C161.29,-240.02 186.08,-240.64 269.16,-270.02 286.63,-276.2 288.05,-283.94 305.16,-291.02 374.63,-319.78 411.61,-285.18 468.77,-334.02 495.96,-357.25 471.23,-404.93 494.79,-414.38"/>
<polygon fill="black" stroke="black" points="494.34,-417.85 504.77,-416.02 495.48,-410.94 494.34,-417.85"/>
</g>
<!-- n13&#45;&gt;c24 -->
<g id="edge9" class="edge">
<title>n13:e&#45;&gt;c24:w</title>
<path fill="none" stroke="black" d="M73.16,-240.02C115.02,-240.02 72.41,-320.38 99.09,-334.82"/>
<polygon fill="black" stroke="black" points="98.65,-338.3 109.16,-337.02 100.14,-331.46 98.65,-338.3"/>
</g>
<!-- n14 -->
<g id="node14" class="node">
<title>n14</title>
<polygon fill="none" stroke="black" points="63.58,-447.57 63.58,-462.48 47.77,-473.02 25.4,-473.02 9.58,-462.48 9.58,-447.57 25.4,-437.02 47.77,-437.02 63.58,-447.57"/>
<text text-anchor="middle" x="36.58" y="-451.32" font-family="Times,serif" font-size="14.00">rst</text>
</g>
<!-- n14&#45;&gt;c21 -->
<g id="edge10" class="edge">
<title>n14:e&#45;&gt;c21:w</title>
<path fill="none" stroke="black" d="M64.58,-455.02C79.85,-455.02 290.91,-582.53 305.16,-588.02 339.59,-601.3 349.08,-607.02 385.97,-607.02 385.97,-607.02 385.97,-607.02 585.77,-607.02 720.08,-607.02 784.28,-597.82 864.38,-490.02 907.74,-431.68 832.05,-174.91 890.32,-149.97"/>
<polygon fill="black" stroke="black" points="891.23,-153.36 900.38,-148.02 889.9,-146.49 891.23,-153.36"/>
</g>
<!-- n14&#45;&gt;c22 -->
<g id="edge11" class="edge">
<title>n14:e&#45;&gt;c22:w</title>
<path fill="none" stroke="black" d="M64.58,-455.02C88.01,-455.02 253.16,-421.13 269.16,-404.02 330.88,-338.08 245.81,-272.1 305.16,-204.02 364.2,-136.31 408.11,-138.73 494.58,-139.01"/>
<polygon fill="black" stroke="black" points="494.77,-142.51 504.77,-139.02 494.78,-135.51 494.77,-142.51"/>
</g>
<!-- n14&#45;&gt;c23 -->
<g id="edge12" class="edge">
<title>n14:e&#45;&gt;c23:w</title>
<path fill="none" stroke="black" d="M64.58,-455.02C154.45,-455.02 393.1,-490.49 468.77,-442.02 495.37,-424.99 475.18,-381.92 494.7,-372.06"/>
<polygon fill="black" stroke="black" points="495.66,-375.43 504.77,-370.02 494.28,-368.57 495.66,-375.43"/>
</g>
<!-- n14&#45;&gt;c24 -->
<g id="edge13" class="edge">
<title>n14:e&#45;&gt;c24:w</title>
<path fill="none" stroke="black" d="M64.58,-455.02C136.28,-455.02 43.97,-307.26 99.02,-292.25"/>
<polygon fill="black" stroke="black" points="99.66,-295.7 109.16,-291.02 98.82,-288.75 99.66,-295.7"/>
</g>
<!-- n15 -->
<g id="node15" class="node">
<title>n15</title>
<polygon fill="none" stroke="black" points="63.58,-129.57 63.58,-144.48 47.77,-155.02 25.4,-155.02 9.58,-144.48 9.58,-129.57 25.4,-119.02 47.77,-119.02 63.58,-129.57"/>
<text text-anchor="middle" x="36.58" y="-133.32" font-family="Times,serif" font-size="14.00">clk</text>
</g>
<!-- n15&#45;&gt;c21 -->
<g id="edge14" class="edge">
<title>n15:e&#45;&gt;c21:w</title>
<path fill="none" stroke="black" d="M64.58,-137.02C139.65,-137.02 310.9,-33.02 385.97,-33.02 385.97,-33.02 385.97,-33.02 585.77,-33.02 710.81,-33.02 767.2,6.65 864.38,-72.02 897.64,-98.95 861.06,-159.37 890.28,-169.55"/>
<polygon fill="black" stroke="black" points="889.98,-173.05 900.38,-171.02 890.99,-166.12 889.98,-173.05"/>
</g>
<!-- n15&#45;&gt;c22 -->
<g id="edge15" class="edge">
<title>n15:e&#45;&gt;c22:w</title>
<path fill="none" stroke="black" d="M64.58,-137.02C257.09,-137.02 307.07,-161.15 494.57,-162"/>
<polygon fill="black" stroke="black" points="494.77,-165.5 504.77,-162.02 494.78,-158.5 494.77,-165.5"/>
</g>
<!-- n15&#45;&gt;c23 -->
<g id="edge16" class="edge">
<title>n15:e&#45;&gt;c23:w</title>
<path fill="none" stroke="black" d="M64.58,-137.02C70.89,-137.02 263.62,-233 269.16,-236.02 285.62,-245.01 287.71,-251.18 305.16,-258.02 374.22,-285.11 412.77,-242.38 468.77,-291.02 502.09,-319.97 464.06,-381.72 494.79,-391.66"/>
<polygon fill="black" stroke="black" points="494.39,-395.14 504.77,-393.02 495.34,-388.2 494.39,-395.14"/>
</g>
<!-- n15&#45;&gt;c24 -->
<g id="edge17" class="edge">
<title>n15:e&#45;&gt;c24:w</title>
<path fill="none" stroke="black" d="M64.58,-137.02C141.9,-137.02 38.63,-297.82 99.02,-312.89"/>
<polygon fill="black" stroke="black" points="98.84,-316.39 109.16,-314.02 99.61,-309.44 98.84,-316.39"/>
</g>
<!-- v0 -->
<g id="node16" class="node">
<title>v0</title>
<ellipse fill="none" stroke="black" cx="1125.93" cy="-195.02" rx="27" ry="18"/>
</g>
<!-- v1 -->
<g id="node17" class="node">
<title>v1</title>
<ellipse fill="none" stroke="black" cx="1125.93" cy="-249.02" rx="27" ry="18"/>
</g>
<!-- c21&#45;&gt;n5 -->
<g id="edge24" class="edge">
<title>c21:e&#45;&gt;n5:w</title>
<path fill="none" stroke="black" stroke-width="3" d="M1060.38,-156.02C1073.65,-156.02 1077.55,-147.23 1086.42,-143.11"/>
<polygon fill="black" stroke="black" stroke-width="3" points="1087.31,-146.5 1096.38,-141.02 1085.88,-139.65 1087.31,-146.5"/>
</g>
<!-- c21&#45;&gt;v0 -->
<g id="edge29" class="edge">
<title>c21:e&#45;&gt;v0:w</title>
<path fill="none" stroke="black" d="M1060.38,-195.02C1073.03,-195.02 1078.49,-195.02 1087.65,-195.02"/>
<polygon fill="black" stroke="black" points="1087.93,-198.52 1097.93,-195.02 1087.93,-191.52 1087.93,-198.52"/>
</g>
<!-- c21&#45;&gt;v1 -->
<g id="edge30" class="edge">
<title>c21:e&#45;&gt;v1:w</title>
<path fill="none" stroke="black" d="M1060.38,-233.02C1074.55,-233.02 1078.43,-242.79 1088.09,-247.06"/>
<polygon fill="black" stroke="black" points="1087.44,-250.5 1097.93,-249.02 1088.81,-243.64 1087.44,-250.5"/>
</g>
<!-- v2 -->
<g id="node19" class="node">
<title>v2</title>
<ellipse fill="none" stroke="black" cx="782.58" cy="-186.02" rx="27" ry="18"/>
</g>
<!-- c22&#45;&gt;n3 -->
<g id="edge20" class="edge">
<title>c22:e&#45;&gt;n3:w</title>
<path fill="none" stroke="black" stroke-width="3" d="M664.77,-224.02C678.18,-224.02 681.9,-233.4 690.76,-237.8"/>
<polygon fill="black" stroke="black" stroke-width="3" points="690.25,-241.27 700.77,-240.02 691.77,-234.44 690.25,-241.27"/>
</g>
<!-- c22&#45;&gt;n6 -->
<g id="edge25" class="edge">
<title>c22:e&#45;&gt;n6:w</title>
<path fill="none" stroke="black" stroke-width="3" d="M664.77,-147.02C700.25,-147.02 710.56,-134.7 741.32,-132.39"/>
<polygon fill="black" stroke="black" stroke-width="3" points="741.71,-135.88 751.58,-132.02 741.46,-128.89 741.71,-135.88"/>
</g>
<!-- c22&#45;&gt;v2 -->
<g id="edge31" class="edge">
<title>c22:e&#45;&gt;v2:w</title>
<path fill="none" stroke="black" d="M664.77,-186.02C701.1,-186.02 712.63,-186.02 744.5,-186.02"/>
<polygon fill="black" stroke="black" points="744.58,-189.52 754.58,-186.02 744.58,-182.52 744.58,-189.52"/>
</g>
<!-- v3 -->
<g id="node21" class="node">
<title>v3</title>
<ellipse fill="none" stroke="black" cx="782.58" cy="-463.02" rx="27" ry="18"/>
</g>
<!-- c23&#45;&gt;n1 -->
<g id="edge1" class="edge">
<title>c23:e&#45;&gt;n1:w</title>
<path fill="none" stroke="black" stroke-width="3" d="M664.77,-417.02C677.19,-417.02 682.05,-412.43 690.81,-410.2"/>
<polygon fill="black" stroke="black" stroke-width="3" points="691.25,-413.68 700.77,-409.02 690.43,-406.72 691.25,-413.68"/>
</g>
<!-- c23&#45;&gt;n7 -->
<g id="edge26" class="edge">
<title>c23:e&#45;&gt;n7:w</title>
<path fill="none" stroke="black" stroke-width="3" d="M664.77,-378.02C701.1,-378.02 710.15,-358.97 741.57,-355.55"/>
<polygon fill="black" stroke="black" stroke-width="3" points="741.77,-359.04 751.58,-355.02 741.41,-352.05 741.77,-359.04"/>
</g>
<!-- c23&#45;&gt;v3 -->
<g id="edge32" class="edge">
<title>c23:e&#45;&gt;v3:w</title>
<path fill="none" stroke="black" d="M664.77,-455.02C701.24,-455.02 712.53,-461.65 744.47,-462.84"/>
<polygon fill="black" stroke="black" points="744.52,-466.34 754.58,-463.02 744.64,-459.34 744.52,-466.34"/>
</g>
<!-- c24&#45;&gt;n2 -->
<g id="edge18" class="edge">
<title>c24:e&#45;&gt;n2:w</title>
<path fill="none" stroke="black" stroke-width="3" d="M269.16,-338.02C302.81,-338.02 275.11,-399.1 295.34,-412.46"/>
<polygon fill="black" stroke="black" stroke-width="3" points="294.6,-415.89 305.16,-415.02 296.37,-409.11 294.6,-415.89"/>
</g>
<!-- c24&#45;&gt;n4 -->
<g id="edge22" class="edge">
<title>c24:e&#45;&gt;n4:w</title>
<path fill="none" stroke="black" stroke-width="3" d="M269.16,-376.02C349.16,-376.02 232.78,-544.78 295.14,-559.94"/>
<polygon fill="black" stroke="black" stroke-width="3" points="294.84,-563.43 305.16,-561.02 295.6,-556.47 294.84,-563.43"/>
</g>
<!-- c24&#45;&gt;n8 -->
<g id="edge27" class="edge">
<title>c24:e&#45;&gt;n8:w</title>
<path fill="none" stroke="black" stroke-width="3" d="M269.16,-299.02C289.99,-299.02 288.31,-316.78 305.16,-329.02 323.55,-342.38 328.11,-356.19 345.54,-360"/>
<polygon fill="black" stroke="black" stroke-width="3" points="345.67,-363.53 355.97,-361.02 346.36,-356.56 345.67,-363.53"/>
</g>
</g>
</svg>
