<?xml version="1.0" encoding="UTF-8" standalone="no"?>
<!DOCTYPE svg PUBLIC "-//W3C//DTD SVG 1.1//EN"
 "http://www.w3.org/Graphics/SVG/1.1/DTD/svg11.dtd">
<!-- Generated by graphviz version 2.43.0 (0)
 -->
<!-- Title: systolic_array Pages: 1 -->
<svg width="1126pt" height="543pt"
 viewBox="0.00 0.00 1126.31 543.19" xmlns="http://www.w3.org/2000/svg" xmlns:xlink="http://www.w3.org/1999/xlink">
<g id="graph0" class="graph" transform="scale(1 1) rotate(0) translate(4 539.19)">
<title>systolic_array</title>
<polygon fill="white" stroke="transparent" points="-4,4 -4,-539.19 1122.31,-539.19 1122.31,4 -4,4"/>
<text text-anchor="middle" x="559.16" y="-7.8" font-family="Times,serif" font-size="14.00">systolic_array</text>
<!-- n1 -->
<g id="node1" class="node">
<title>n1</title>
<polygon fill="none" stroke="black" points="54,-509.73 54,-524.64 38.18,-535.19 15.82,-535.19 0,-524.64 0,-509.73 15.82,-499.19 38.18,-499.19 54,-509.73"/>
<text text-anchor="middle" x="27" y="-513.49" font-family="Times,serif" font-size="14.00">a1</text>
</g>
<!-- c20 -->
<g id="node15" class="node">
<title>c20</title>
<polygon fill="none" stroke="black" points="90,-421.19 90,-513.19 244,-513.19 244,-421.19 90,-421.19"/>
<text text-anchor="middle" x="113" y="-497.99" font-family="Times,serif" font-size="14.00">a_in</text>
<polyline fill="none" stroke="black" points="90,-490.19 136,-490.19 "/>
<text text-anchor="middle" x="113" y="-474.99" font-family="Times,serif" font-size="14.00">b_in</text>
<polyline fill="none" stroke="black" points="90,-467.19 136,-467.19 "/>
<text text-anchor="middle" x="113" y="-451.99" font-family="Times,serif" font-size="14.00">clk</text>
<polyline fill="none" stroke="black" points="90,-444.19 136,-444.19 "/>
<text text-anchor="middle" x="113" y="-428.99" font-family="Times,serif" font-size="14.00">rst</text>
<polyline fill="none" stroke="black" points="136,-421.19 136,-513.19 "/>
<text text-anchor="middle" x="162" y="-470.99" font-family="Times,serif" font-size="14.00">pe11</text>
<text text-anchor="middle" x="162" y="-455.99" font-family="Times,serif" font-size="14.00">pe</text>
<polyline fill="none" stroke="black" points="188,-421.19 188,-513.19 "/>
<text text-anchor="middle" x="216" y="-494.49" font-family="Times,serif" font-size="14.00">a_out</text>
<polyline fill="none" stroke="black" points="188,-483.19 244,-483.19 "/>
<text text-anchor="middle" x="216" y="-463.99" font-family="Times,serif" font-size="14.00">b_out</text>
<polyline fill="none" stroke="black" points="188,-452.19 244,-452.19 "/>
<text text-anchor="middle" x="216" y="-432.99" font-family="Times,serif" font-size="14.00">c</text>
</g>
<!-- n1&#45;&gt;c20 -->
<g id="edge1" class="edge">
<title>n1:e&#45;&gt;c20:w</title>
<path fill="none" stroke="black" stroke-width="3" d="M54,-517.19C67.27,-517.19 71.16,-508.4 80.04,-504.27"/>
<polygon fill="black" stroke="black" stroke-width="3" points="80.93,-507.66 90,-502.19 79.49,-500.81 80.93,-507.66"/>
</g>
<!-- n2 -->
<g id="node2" class="node">
<title>n2</title>
<polygon fill="none" stroke="black" points="361.8,-326.19 280.19,-308.19 361.8,-290.19 443.42,-308.19 361.8,-326.19"/>
<text text-anchor="middle" x="361.8" y="-304.49" font-family="Times,serif" font-size="14.00">a11_to_12</text>
</g>
<!-- c21 -->
<g id="node17" class="node">
<title>c21</title>
<polygon fill="none" stroke="black" points="479.61,-131.19 479.61,-223.19 633.61,-223.19 633.61,-131.19 479.61,-131.19"/>
<text text-anchor="middle" x="502.61" y="-207.99" font-family="Times,serif" font-size="14.00">a_in</text>
<polyline fill="none" stroke="black" points="479.61,-200.19 525.61,-200.19 "/>
<text text-anchor="middle" x="502.61" y="-184.99" font-family="Times,serif" font-size="14.00">b_in</text>
<polyline fill="none" stroke="black" points="479.61,-177.19 525.61,-177.19 "/>
<text text-anchor="middle" x="502.61" y="-161.99" font-family="Times,serif" font-size="14.00">clk</text>
<polyline fill="none" stroke="black" points="479.61,-154.19 525.61,-154.19 "/>
<text text-anchor="middle" x="502.61" y="-138.99" font-family="Times,serif" font-size="14.00">rst</text>
<polyline fill="none" stroke="black" points="525.61,-131.19 525.61,-223.19 "/>
<text text-anchor="middle" x="551.61" y="-180.99" font-family="Times,serif" font-size="14.00">pe12</text>
<text text-anchor="middle" x="551.61" y="-165.99" font-family="Times,serif" font-size="14.00">pe</text>
<polyline fill="none" stroke="black" points="577.61,-131.19 577.61,-223.19 "/>
<text text-anchor="middle" x="605.61" y="-204.49" font-family="Times,serif" font-size="14.00">a_out</text>
<polyline fill="none" stroke="black" points="577.61,-193.19 633.61,-193.19 "/>
<text text-anchor="middle" x="605.61" y="-173.99" font-family="Times,serif" font-size="14.00">b_out</text>
<polyline fill="none" stroke="black" points="577.61,-162.19 633.61,-162.19 "/>
<text text-anchor="middle" x="605.61" y="-142.99" font-family="Times,serif" font-size="14.00">c</text>
</g>
<!-- n2&#45;&gt;c21 -->
<g id="edge14" class="edge">
<title>n2:e&#45;&gt;c21:w</title>
<path fill="none" stroke="black" stroke-width="3" d="M443.61,-308.19C485.08,-308.19 443.14,-228.66 469.62,-214.37"/>
<polygon fill="black" stroke="black" stroke-width="3" points="470.59,-217.75 479.61,-212.19 469.09,-210.91 470.59,-217.75"/>
</g>
<!-- n3 -->
<g id="node3" class="node">
<title>n3</title>
<polygon fill="none" stroke="black" points="388.8,-484.73 388.8,-499.64 372.99,-510.19 350.62,-510.19 334.8,-499.64 334.8,-484.73 350.62,-474.19 372.99,-474.19 388.8,-484.73"/>
<text text-anchor="middle" x="361.8" y="-488.49" font-family="Times,serif" font-size="14.00">a2</text>
</g>
<!-- c22 -->
<g id="node19" class="node">
<title>c22</title>
<polygon fill="none" stroke="black" points="479.61,-358.19 479.61,-450.19 633.61,-450.19 633.61,-358.19 479.61,-358.19"/>
<text text-anchor="middle" x="502.61" y="-434.99" font-family="Times,serif" font-size="14.00">a_in</text>
<polyline fill="none" stroke="black" points="479.61,-427.19 525.61,-427.19 "/>
<text text-anchor="middle" x="502.61" y="-411.99" font-family="Times,serif" font-size="14.00">b_in</text>
<polyline fill="none" stroke="black" points="479.61,-404.19 525.61,-404.19 "/>
<text text-anchor="middle" x="502.61" y="-388.99" font-family="Times,serif" font-size="14.00">clk</text>
<polyline fill="none" stroke="black" points="479.61,-381.19 525.61,-381.19 "/>
<text text-anchor="middle" x="502.61" y="-365.99" font-family="Times,serif" font-size="14.00">rst</text>
<polyline fill="none" stroke="black" points="525.61,-358.19 525.61,-450.19 "/>
<text text-anchor="middle" x="551.61" y="-407.99" font-family="Times,serif" font-size="14.00">pe21</text>
<text text-anchor="middle" x="551.61" y="-392.99" font-family="Times,serif" font-size="14.00">pe</text>
<polyline fill="none" stroke="black" points="577.61,-358.19 577.61,-450.19 "/>
<text text-anchor="middle" x="605.61" y="-431.49" font-family="Times,serif" font-size="14.00">a_out</text>
<polyline fill="none" stroke="black" points="577.61,-420.19 633.61,-420.19 "/>
<text text-anchor="middle" x="605.61" y="-400.99" font-family="Times,serif" font-size="14.00">b_out</text>
<polyline fill="none" stroke="black" points="577.61,-389.19 633.61,-389.19 "/>
<text text-anchor="middle" x="605.61" y="-369.99" font-family="Times,serif" font-size="14.00">c</text>
</g>
<!-- n3&#45;&gt;c22 -->
<g id="edge15" class="edge">
<title>n3:e&#45;&gt;c22:w</title>
<path fill="none" stroke="black" stroke-width="3" d="M389.8,-492.19C416.56,-492.19 420.73,-479.07 443.61,-465.19 456.92,-457.11 459.35,-445.59 469.48,-441.09"/>
<polygon fill="black" stroke="black" stroke-width="3" points="470.43,-444.48 479.61,-439.19 469.14,-437.6 470.43,-444.48"/>
</g>
<!-- n4 -->
<g id="node4" class="node">
<title>n4</title>
<polygon fill="none" stroke="black" points="751.41,-465.19 669.8,-447.19 751.41,-429.19 833.03,-447.19 751.41,-465.19"/>
<text text-anchor="middle" x="751.41" y="-443.49" font-family="Times,serif" font-size="14.00">a21_to_22</text>
</g>
<!-- c23 -->
<g id="node22" class="node">
<title>c23</title>
<polygon fill="none" stroke="black" points="869.22,-82.19 869.22,-174.19 1023.22,-174.19 1023.22,-82.19 869.22,-82.19"/>
<text text-anchor="middle" x="892.22" y="-158.99" font-family="Times,serif" font-size="14.00">a_in</text>
<polyline fill="none" stroke="black" points="869.22,-151.19 915.22,-151.19 "/>
<text text-anchor="middle" x="892.22" y="-135.99" font-family="Times,serif" font-size="14.00">b_in</text>
<polyline fill="none" stroke="black" points="869.22,-128.19 915.22,-128.19 "/>
<text text-anchor="middle" x="892.22" y="-112.99" font-family="Times,serif" font-size="14.00">clk</text>
<polyline fill="none" stroke="black" points="869.22,-105.19 915.22,-105.19 "/>
<text text-anchor="middle" x="892.22" y="-89.99" font-family="Times,serif" font-size="14.00">rst</text>
<polyline fill="none" stroke="black" points="915.22,-82.19 915.22,-174.19 "/>
<text text-anchor="middle" x="941.22" y="-131.99" font-family="Times,serif" font-size="14.00">pe22</text>
<text text-anchor="middle" x="941.22" y="-116.99" font-family="Times,serif" font-size="14.00">pe</text>
<polyline fill="none" stroke="black" points="967.22,-82.19 967.22,-174.19 "/>
<text text-anchor="middle" x="995.22" y="-155.49" font-family="Times,serif" font-size="14.00">a_out</text>
<polyline fill="none" stroke="black" points="967.22,-144.19 1023.22,-144.19 "/>
<text text-anchor="middle" x="995.22" y="-124.99" font-family="Times,serif" font-size="14.00">b_out</text>
<polyline fill="none" stroke="black" points="967.22,-113.19 1023.22,-113.19 "/>
<text text-anchor="middle" x="995.22" y="-93.99" font-family="Times,serif" font-size="14.00">c</text>
</g>
<!-- n4&#45;&gt;c23 -->
<g id="edge17" class="edge">
<title>n4:e&#45;&gt;c23:w</title>
<path fill="none" stroke="black" stroke-width="3" d="M833.22,-447.19C893.11,-447.19 815.76,-195.5 859.57,-166"/>
<polygon fill="black" stroke="black" stroke-width="3" points="860.6,-169.35 869.22,-163.19 858.64,-162.63 860.6,-169.35"/>
</g>
<!-- n5 -->
<g id="node5" class="node">
<title>n5</title>
<polygon fill="none" stroke="black" points="54,-455.73 54,-470.64 38.18,-481.19 15.82,-481.19 0,-470.64 0,-455.73 15.82,-445.19 38.18,-445.19 54,-455.73"/>
<text text-anchor="middle" x="27" y="-459.49" font-family="Times,serif" font-size="14.00">b1</text>
</g>
<!-- n5&#45;&gt;c20 -->
<g id="edge18" class="edge">
<title>n5:e&#45;&gt;c20:w</title>
<path fill="none" stroke="black" stroke-width="3" d="M54,-463.19C67.41,-463.19 71.12,-472.57 79.99,-476.96"/>
<polygon fill="black" stroke="black" stroke-width="3" points="79.48,-480.44 90,-479.19 81,-473.6 79.48,-480.44"/>
</g>
<!-- n6 -->
<g id="node6" class="node">
<title>n6</title>
<polygon fill="none" stroke="black" points="361.8,-456.19 280.19,-438.19 361.8,-420.19 443.42,-438.19 361.8,-456.19"/>
<text text-anchor="middle" x="361.8" y="-434.49" font-family="Times,serif" font-size="14.00">b11_to_21</text>
</g>
<!-- n6&#45;&gt;c22 -->
<g id="edge20" class="edge">
<title>n6:e&#45;&gt;c22:w</title>
<path fill="none" stroke="black" stroke-width="3" d="M443.61,-438.19C458.26,-438.19 460.55,-424.76 469.79,-418.89"/>
<polygon fill="black" stroke="black" stroke-width="3" points="470.89,-422.21 479.61,-416.19 469.04,-415.46 470.89,-422.21"/>
</g>
<!-- n7 -->
<g id="node7" class="node">
<title>n7</title>
<polygon fill="none" stroke="black" points="751.41,-196.19 669.8,-178.19 751.41,-160.19 833.03,-178.19 751.41,-196.19"/>
<text text-anchor="middle" x="751.41" y="-174.49" font-family="Times,serif" font-size="14.00">b12_to_22</text>
</g>
<!-- n7&#45;&gt;c23 -->
<g id="edge22" class="edge">
<title>n7:e&#45;&gt;c23:w</title>
<path fill="none" stroke="black" stroke-width="3" d="M833.22,-178.19C852.3,-178.19 848.65,-152.62 859.56,-143.43"/>
<polygon fill="black" stroke="black" stroke-width="3" points="860.85,-146.69 869.22,-140.19 858.63,-140.05 860.85,-146.69"/>
</g>
<!-- n8 -->
<g id="node8" class="node">
<title>n8</title>
<polygon fill="none" stroke="black" points="388.8,-246.73 388.8,-261.64 372.99,-272.19 350.62,-272.19 334.8,-261.64 334.8,-246.73 350.62,-236.19 372.99,-236.19 388.8,-246.73"/>
<text text-anchor="middle" x="361.8" y="-250.49" font-family="Times,serif" font-size="14.00">b2</text>
</g>
<!-- n8&#45;&gt;c21 -->
<g id="edge23" class="edge">
<title>n8:e&#45;&gt;c21:w</title>
<path fill="none" stroke="black" stroke-width="3" d="M389.8,-254.19C416.56,-254.19 422.13,-243.14 443.61,-227.19 458.93,-215.81 457.69,-197.53 469.59,-191.33"/>
<polygon fill="black" stroke="black" stroke-width="3" points="470.56,-194.7 479.61,-189.19 469.1,-187.85 470.56,-194.7"/>
</g>
<!-- n9 -->
<g id="node9" class="node">
<title>n9</title>
<polygon fill="none" stroke="black" points="391.4,-192.73 391.4,-207.64 374.06,-218.19 349.55,-218.19 332.21,-207.64 332.21,-192.73 349.55,-182.19 374.06,-182.19 391.4,-192.73"/>
<text text-anchor="middle" x="361.8" y="-196.49" font-family="Times,serif" font-size="14.00">c11</text>
</g>
<!-- n10 -->
<g id="node10" class="node">
<title>n10</title>
<polygon fill="none" stroke="black" points="781.01,-116.73 781.01,-131.64 763.67,-142.19 739.16,-142.19 721.82,-131.64 721.82,-116.73 739.16,-106.19 763.67,-106.19 781.01,-116.73"/>
<text text-anchor="middle" x="751.41" y="-120.49" font-family="Times,serif" font-size="14.00">c12</text>
</g>
<!-- n11 -->
<g id="node11" class="node">
<title>n11</title>
<polygon fill="none" stroke="black" points="781.01,-331.73 781.01,-346.64 763.67,-357.19 739.16,-357.19 721.82,-346.64 721.82,-331.73 739.16,-321.19 763.67,-321.19 781.01,-331.73"/>
<text text-anchor="middle" x="751.41" y="-335.49" font-family="Times,serif" font-size="14.00">c21</text>
</g>
<!-- n12 -->
<g id="node12" class="node">
<title>n12</title>
<polygon fill="none" stroke="black" points="1118.36,-67.73 1118.36,-82.64 1101.02,-93.19 1076.51,-93.19 1059.17,-82.64 1059.17,-67.73 1076.51,-57.19 1101.02,-57.19 1118.36,-67.73"/>
<text text-anchor="middle" x="1088.77" y="-71.49" font-family="Times,serif" font-size="14.00">c22</text>
</g>
<!-- n13 -->
<g id="node13" class="node">
<title>n13</title>
<polygon fill="none" stroke="black" points="54,-273.73 54,-288.64 38.18,-299.19 15.82,-299.19 0,-288.64 0,-273.73 15.82,-263.19 38.18,-263.19 54,-273.73"/>
<text text-anchor="middle" x="27" y="-277.49" font-family="Times,serif" font-size="14.00">clk</text>
</g>
<!-- n13&#45;&gt;c20 -->
<g id="edge5" class="edge">
<title>n13:e&#45;&gt;c20:w</title>
<path fill="none" stroke="black" d="M54,-281.19C129.12,-281.19 22.46,-438.61 79.82,-453.98"/>
<polygon fill="black" stroke="black" points="79.66,-457.49 90,-455.19 80.48,-450.54 79.66,-457.49"/>
</g>
<!-- n13&#45;&gt;c21 -->
<g id="edge6" class="edge">
<title>n13:e&#45;&gt;c21:w</title>
<path fill="none" stroke="black" d="M54,-281.19C165.32,-281.19 171.94,-199.97 280,-173.19 362.81,-152.67 388.8,-164.2 469.49,-165.13"/>
<polygon fill="black" stroke="black" points="469.59,-168.63 479.61,-165.19 469.63,-161.63 469.59,-168.63"/>
</g>
<!-- n13&#45;&gt;c22 -->
<g id="edge7" class="edge">
<title>n13:e&#45;&gt;c22:w</title>
<path fill="none" stroke="black" d="M54,-281.19C95.85,-281.19 55.94,-343.88 90,-368.19 157.98,-416.72 375.85,-394.04 469.37,-392.29"/>
<polygon fill="black" stroke="black" points="469.65,-395.79 479.61,-392.19 469.58,-388.79 469.65,-395.79"/>
</g>
<!-- n13&#45;&gt;c23 -->
<g id="edge8" class="edge">
<title>n13:e&#45;&gt;c23:w</title>
<path fill="none" stroke="black" d="M54,-281.19C100.82,-281.19 57.19,-215.59 90,-182.19 180.35,-90.21 231.88,-78.19 360.8,-78.19 360.8,-78.19 360.8,-78.19 557.61,-78.19 680.39,-78.19 715.12,-63.58 833.22,-97.19 846.68,-101.02 850.03,-110.29 859.23,-114.29"/>
<polygon fill="black" stroke="black" points="858.74,-117.76 869.22,-116.19 860.05,-110.89 858.74,-117.76"/>
</g>
<!-- n14 -->
<g id="node14" class="node">
<title>n14</title>
<polygon fill="none" stroke="black" points="54,-164.73 54,-179.64 38.18,-190.19 15.82,-190.19 0,-179.64 0,-164.73 15.82,-154.19 38.18,-154.19 54,-164.73"/>
<text text-anchor="middle" x="27" y="-168.49" font-family="Times,serif" font-size="14.00">rst</text>
</g>
<!-- n14&#45;&gt;c20 -->
<g id="edge9" class="edge">
<title>n14:e&#45;&gt;c20:w</title>
<path fill="none" stroke="black" d="M54,-172.19C108.46,-172.19 41.77,-398.8 80.14,-428.9"/>
<polygon fill="black" stroke="black" points="79.41,-432.35 90,-432.19 81.62,-425.71 79.41,-432.35"/>
</g>
<!-- n14&#45;&gt;c21 -->
<g id="edge10" class="edge">
<title>n14:e&#45;&gt;c21:w</title>
<path fill="none" stroke="black" d="M54,-172.19C75.41,-172.19 69.99,-147.8 90,-140.19 236.9,-84.34 286.51,-135.83 443.61,-140.19 455.62,-140.52 460.85,-141.48 469.48,-141.94"/>
<polygon fill="black" stroke="black" points="469.53,-145.44 479.61,-142.19 469.7,-138.44 469.53,-145.44"/>
</g>
<!-- n14&#45;&gt;c22 -->
<g id="edge11" class="edge">
<title>n14:e&#45;&gt;c22:w</title>
<path fill="none" stroke="black" d="M54,-172.19C177.84,-172.19 165.78,-287.33 280,-335.19 359.84,-368.64 387.51,-369.2 469.6,-369.19"/>
<polygon fill="black" stroke="black" points="469.61,-372.69 479.61,-369.19 469.61,-365.69 469.61,-372.69"/>
</g>
<!-- n14&#45;&gt;c23 -->
<g id="edge12" class="edge">
<title>n14:e&#45;&gt;c23:w</title>
<path fill="none" stroke="black" d="M54,-172.19C104.6,-172.19 50.3,-95.56 90,-64.19 184.8,10.72 239.98,-40.19 360.8,-40.19 360.8,-40.19 360.8,-40.19 557.61,-40.19 680.57,-40.19 719.15,-18.3 833.22,-64.19 848.41,-70.3 849.2,-85.09 859.3,-90.84"/>
<polygon fill="black" stroke="black" points="858.68,-94.29 869.22,-93.19 860.29,-87.48 858.68,-94.29"/>
</g>
<!-- c20&#45;&gt;n2 -->
<g id="edge13" class="edge">
<title>c20:e&#45;&gt;n2:w</title>
<path fill="none" stroke="black" stroke-width="3" d="M244,-498.19C326.09,-498.19 205.81,-324.88 269.72,-309.3"/>
<polygon fill="black" stroke="black" stroke-width="3" points="270.44,-312.75 280,-308.19 269.68,-305.79 270.44,-312.75"/>
</g>
<!-- c20&#45;&gt;n6 -->
<g id="edge19" class="edge">
<title>c20:e&#45;&gt;n6:w</title>
<path fill="none" stroke="black" stroke-width="3" d="M244,-468.19C260.76,-468.19 260.37,-448.76 270.43,-441.17"/>
<polygon fill="black" stroke="black" stroke-width="3" points="271.5,-444.51 280,-438.19 269.41,-437.83 271.5,-444.51"/>
</g>
<!-- c20&#45;&gt;n9 -->
<g id="edge24" class="edge">
<title>c20:e&#45;&gt;n9:w</title>
<path fill="none" stroke="black" stroke-width="3" d="M244,-436.19C291.13,-436.19 252.37,-265.37 280,-227.19 292.82,-209.47 302.17,-202.31 320.62,-200.61"/>
<polygon fill="black" stroke="black" stroke-width="3" points="320.96,-204.1 330.8,-200.19 320.67,-197.1 320.96,-204.1"/>
</g>
<!-- v0 -->
<g id="node16" class="node">
<title>v0</title>
<ellipse fill="none" stroke="black" cx="751.41" cy="-232.19" rx="27" ry="18"/>
</g>
<!-- c21&#45;&gt;n7 -->
<g id="edge21" class="edge">
<title>c21:e&#45;&gt;n7:w</title>
<path fill="none" stroke="black" stroke-width="3" d="M633.61,-178.19C645.61,-178.19 650.86,-178.19 659.48,-178.19"/>
<polygon fill="black" stroke="black" stroke-width="3" points="659.61,-181.69 669.61,-178.19 659.61,-174.69 659.61,-181.69"/>
</g>
<!-- c21&#45;&gt;n10 -->
<g id="edge2" class="edge">
<title>c21:e&#45;&gt;n10:w</title>
<path fill="none" stroke="black" stroke-width="3" d="M633.61,-146.19C669.68,-146.19 678.98,-128.12 710.03,-124.73"/>
<polygon fill="black" stroke="black" stroke-width="3" points="710.61,-128.21 720.41,-124.19 710.25,-121.22 710.61,-128.21"/>
</g>
<!-- c21&#45;&gt;v0 -->
<g id="edge25" class="edge">
<title>c21:e&#45;&gt;v0:w</title>
<path fill="none" stroke="black" d="M633.61,-208.19C671.21,-208.19 680.54,-228.07 713.06,-231.64"/>
<polygon fill="black" stroke="black" points="713.24,-235.16 723.41,-232.19 713.61,-228.17 713.24,-235.16"/>
</g>
<!-- v1 -->
<g id="node18" class="node">
<title>v1</title>
<ellipse fill="none" stroke="black" cx="751.41" cy="-393.19" rx="27" ry="18"/>
</g>
<!-- c22&#45;&gt;n4 -->
<g id="edge16" class="edge">
<title>c22:e&#45;&gt;n4:w</title>
<path fill="none" stroke="black" stroke-width="3" d="M633.61,-435.19C646.39,-435.19 650.79,-442.08 659.51,-445.42"/>
<polygon fill="black" stroke="black" stroke-width="3" points="659.16,-448.91 669.61,-447.19 660.36,-442.01 659.16,-448.91"/>
</g>
<!-- c22&#45;&gt;n11 -->
<g id="edge3" class="edge">
<title>c22:e&#45;&gt;n11:w</title>
<path fill="none" stroke="black" stroke-width="3" d="M633.61,-373.19C671.32,-373.19 677.97,-345.02 710.1,-339.96"/>
<polygon fill="black" stroke="black" stroke-width="3" points="710.7,-343.43 720.41,-339.19 710.18,-336.45 710.7,-343.43"/>
</g>
<!-- c22&#45;&gt;v1 -->
<g id="edge26" class="edge">
<title>c22:e&#45;&gt;v1:w</title>
<path fill="none" stroke="black" d="M633.61,-405.19C670.26,-405.19 681.23,-395.25 713.27,-393.46"/>
<polygon fill="black" stroke="black" points="713.51,-396.96 723.41,-393.19 713.32,-389.96 713.51,-396.96"/>
</g>
<!-- v2 -->
<g id="node20" class="node">
<title>v2</title>
<ellipse fill="none" stroke="black" cx="1088.77" cy="-183.19" rx="27" ry="18"/>
</g>
<!-- v3 -->
<g id="node21" class="node">
<title>v3</title>
<ellipse fill="none" stroke="black" cx="1088.77" cy="-129.19" rx="27" ry="18"/>
</g>
<!-- c23&#45;&gt;n12 -->
<g id="edge4" class="edge">
<title>c23:e&#45;&gt;n12:w</title>
<path fill="none" stroke="black" stroke-width="3" d="M1023.22,-97.19C1037.87,-97.19 1040.16,-83.76 1049.4,-77.89"/>
<polygon fill="black" stroke="black" stroke-width="3" points="1050.5,-81.21 1059.22,-75.19 1048.65,-74.46 1050.5,-81.21"/>
</g>
<!-- c23&#45;&gt;v2 -->
<g id="edge27" class="edge">
<title>c23:e&#45;&gt;v2:w</title>
<path fill="none" stroke="black" d="M1023.22,-159.19C1039,-159.19 1040.9,-174.43 1051.04,-180.62"/>
<polygon fill="black" stroke="black" points="1050.2,-184.02 1060.77,-183.19 1051.99,-177.25 1050.2,-184.02"/>
</g>
<!-- c23&#45;&gt;v3 -->
<g id="edge28" class="edge">
<title>c23:e&#45;&gt;v3:w</title>
<path fill="none" stroke="black" d="M1023.22,-129.19C1035.87,-129.19 1041.32,-129.19 1050.49,-129.19"/>
<polygon fill="black" stroke="black" points="1050.77,-132.69 1060.77,-129.19 1050.77,-125.69 1050.77,-132.69"/>
</g>
</g>
</svg>
