<?xml version="1.0" encoding="UTF-8" standalone="no"?>
<!DOCTYPE svg PUBLIC "-//W3C//DTD SVG 1.1//EN"
 "http://www.w3.org/Graphics/SVG/1.1/DTD/svg11.dtd">
<!-- Generated by graphviz version 2.43.0 (0)
 -->
<!-- Title: systolic_array Pages: 1 -->
<svg width="315pt" height="457pt"
 viewBox="0.00 0.00 315.09 457.00" xmlns="http://www.w3.org/2000/svg" xmlns:xlink="http://www.w3.org/1999/xlink">
<g id="graph0" class="graph" transform="scale(1 1) rotate(0) translate(4 453)">
<title>systolic_array</title>
<polygon fill="white" stroke="transparent" points="-4,4 -4,-453 311.09,-453 311.09,4 -4,4"/>
<text text-anchor="middle" x="153.55" y="-7.8" font-family="Times,serif" font-size="14.00">systolic_array</text>
<!-- n1 -->
<g id="node1" class="node">
<title>n1</title>
<polygon fill="none" stroke="black" points="54,-141.04 54,-155.96 38.18,-166.5 15.82,-166.5 0,-155.96 0,-141.04 15.82,-130.5 38.18,-130.5 54,-141.04"/>
<text text-anchor="middle" x="27" y="-144.8" font-family="Times,serif" font-size="14.00">a1</text>
</g>
<!-- c14 -->
<g id="node11" class="node">
<title>c14</title>
<polygon fill="none" stroke="black" points="90,-23.5 90,-115.5 212,-115.5 212,-23.5 90,-23.5"/>
<text text-anchor="middle" x="113" y="-100.3" font-family="Times,serif" font-size="14.00">a_in</text>
<polyline fill="none" stroke="black" points="90,-92.5 136,-92.5 "/>
<text text-anchor="middle" x="113" y="-77.3" font-family="Times,serif" font-size="14.00">b_in</text>
<polyline fill="none" stroke="black" points="90,-69.5 136,-69.5 "/>
<text text-anchor="middle" x="113" y="-54.3" font-family="Times,serif" font-size="14.00">clk</text>
<polyline fill="none" stroke="black" points="90,-46.5 136,-46.5 "/>
<text text-anchor="middle" x="113" y="-31.3" font-family="Times,serif" font-size="14.00">rst</text>
<polyline fill="none" stroke="black" points="136,-23.5 136,-115.5 "/>
<text text-anchor="middle" x="162" y="-73.3" font-family="Times,serif" font-size="14.00">pe11</text>
<text text-anchor="middle" x="162" y="-58.3" font-family="Times,serif" font-size="14.00">pe</text>
<polyline fill="none" stroke="black" points="188,-23.5 188,-115.5 "/>
<text text-anchor="middle" x="200" y="-65.8" font-family="Times,serif" font-size="14.00">c</text>
</g>
<!-- n1&#45;&gt;c14 -->
<g id="edge1" class="edge">
<title>n1:e&#45;&gt;c14:w</title>
<path fill="none" stroke="black" stroke-width="3" d="M54,-148.5C75.12,-148.5 68.43,-117.75 80.43,-107.66"/>
<polygon fill="black" stroke="black" stroke-width="3" points="81.6,-110.96 90,-104.5 79.41,-104.32 81.6,-110.96"/>
</g>
<!-- c15 -->
<g id="node12" class="node">
<title>c15</title>
<polygon fill="none" stroke="black" points="90,-245.5 90,-337.5 212,-337.5 212,-245.5 90,-245.5"/>
<text text-anchor="middle" x="113" y="-322.3" font-family="Times,serif" font-size="14.00">a_in</text>
<polyline fill="none" stroke="black" points="90,-314.5 136,-314.5 "/>
<text text-anchor="middle" x="113" y="-299.3" font-family="Times,serif" font-size="14.00">b_in</text>
<polyline fill="none" stroke="black" points="90,-291.5 136,-291.5 "/>
<text text-anchor="middle" x="113" y="-276.3" font-family="Times,serif" font-size="14.00">clk</text>
<polyline fill="none" stroke="black" points="90,-268.5 136,-268.5 "/>
<text text-anchor="middle" x="113" y="-253.3" font-family="Times,serif" font-size="14.00">rst</text>
<polyline fill="none" stroke="black" points="136,-245.5 136,-337.5 "/>
<text text-anchor="middle" x="162" y="-295.3" font-family="Times,serif" font-size="14.00">pe12</text>
<text text-anchor="middle" x="162" y="-280.3" font-family="Times,serif" font-size="14.00">pe</text>
<polyline fill="none" stroke="black" points="188,-245.5 188,-337.5 "/>
<text text-anchor="middle" x="200" y="-287.8" font-family="Times,serif" font-size="14.00">c</text>
</g>
<!-- n1&#45;&gt;c15 -->
<g id="edge2" class="edge">
<title>n1:e&#45;&gt;c15:w</title>
<path fill="none" stroke="black" stroke-width="3" d="M54,-148.5C130.93,-148.5 20.59,-310.2 79.97,-325.36"/>
<polygon fill="black" stroke="black" stroke-width="3" points="79.67,-328.85 90,-326.5 80.46,-321.9 79.67,-328.85"/>
</g>
<!-- n2 -->
<g id="node2" class="node">
<title>n2</title>
<polygon fill="none" stroke="black" points="54,-338.04 54,-352.96 38.18,-363.5 15.82,-363.5 0,-352.96 0,-338.04 15.82,-327.5 38.18,-327.5 54,-338.04"/>
<text text-anchor="middle" x="27" y="-341.8" font-family="Times,serif" font-size="14.00">a2</text>
</g>
<!-- c16 -->
<g id="node13" class="node">
<title>c16</title>
<polygon fill="none" stroke="black" points="90,-134.5 90,-226.5 212,-226.5 212,-134.5 90,-134.5"/>
<text text-anchor="middle" x="113" y="-211.3" font-family="Times,serif" font-size="14.00">a_in</text>
<polyline fill="none" stroke="black" points="90,-203.5 136,-203.5 "/>
<text text-anchor="middle" x="113" y="-188.3" font-family="Times,serif" font-size="14.00">b_in</text>
<polyline fill="none" stroke="black" points="90,-180.5 136,-180.5 "/>
<text text-anchor="middle" x="113" y="-165.3" font-family="Times,serif" font-size="14.00">clk</text>
<polyline fill="none" stroke="black" points="90,-157.5 136,-157.5 "/>
<text text-anchor="middle" x="113" y="-142.3" font-family="Times,serif" font-size="14.00">rst</text>
<polyline fill="none" stroke="black" points="136,-134.5 136,-226.5 "/>
<text text-anchor="middle" x="162" y="-184.3" font-family="Times,serif" font-size="14.00">pe21</text>
<text text-anchor="middle" x="162" y="-169.3" font-family="Times,serif" font-size="14.00">pe</text>
<polyline fill="none" stroke="black" points="188,-134.5 188,-226.5 "/>
<text text-anchor="middle" x="200" y="-176.8" font-family="Times,serif" font-size="14.00">c</text>
</g>
<!-- n2&#45;&gt;c16 -->
<g id="edge7" class="edge">
<title>n2:e&#45;&gt;c16:w</title>
<path fill="none" stroke="black" stroke-width="3" d="M54,-345.5C109.97,-345.5 40.56,-232.19 79.88,-217.14"/>
<polygon fill="black" stroke="black" stroke-width="3" points="80.69,-220.56 90,-215.5 79.57,-213.65 80.69,-220.56"/>
</g>
<!-- c17 -->
<g id="node14" class="node">
<title>c17</title>
<polygon fill="none" stroke="black" points="90,-356.5 90,-448.5 212,-448.5 212,-356.5 90,-356.5"/>
<text text-anchor="middle" x="113" y="-433.3" font-family="Times,serif" font-size="14.00">a_in</text>
<polyline fill="none" stroke="black" points="90,-425.5 136,-425.5 "/>
<text text-anchor="middle" x="113" y="-410.3" font-family="Times,serif" font-size="14.00">b_in</text>
<polyline fill="none" stroke="black" points="90,-402.5 136,-402.5 "/>
<text text-anchor="middle" x="113" y="-387.3" font-family="Times,serif" font-size="14.00">clk</text>
<polyline fill="none" stroke="black" points="90,-379.5 136,-379.5 "/>
<text text-anchor="middle" x="113" y="-364.3" font-family="Times,serif" font-size="14.00">rst</text>
<polyline fill="none" stroke="black" points="136,-356.5 136,-448.5 "/>
<text text-anchor="middle" x="162" y="-406.3" font-family="Times,serif" font-size="14.00">pe22</text>
<text text-anchor="middle" x="162" y="-391.3" font-family="Times,serif" font-size="14.00">pe</text>
<polyline fill="none" stroke="black" points="188,-356.5 188,-448.5 "/>
<text text-anchor="middle" x="200" y="-398.8" font-family="Times,serif" font-size="14.00">c</text>
</g>
<!-- n2&#45;&gt;c17 -->
<g id="edge8" class="edge">
<title>n2:e&#45;&gt;c17:w</title>
<path fill="none" stroke="black" stroke-width="3" d="M54,-345.5C93.79,-345.5 54.97,-421.06 80.02,-435.23"/>
<polygon fill="black" stroke="black" stroke-width="3" points="79.47,-438.69 90,-437.5 81.03,-431.87 79.47,-438.69"/>
</g>
<!-- n3 -->
<g id="node3" class="node">
<title>n3</title>
<polygon fill="none" stroke="black" points="54,-78.04 54,-92.96 38.18,-103.5 15.82,-103.5 0,-92.96 0,-78.04 15.82,-67.5 38.18,-67.5 54,-78.04"/>
<text text-anchor="middle" x="27" y="-81.8" font-family="Times,serif" font-size="14.00">b1</text>
</g>
<!-- n3&#45;&gt;c14 -->
<g id="edge9" class="edge">
<title>n3:e&#45;&gt;c14:w</title>
<path fill="none" stroke="black" stroke-width="3" d="M54,-85.5C66.07,-85.5 71.23,-83.25 79.85,-82.12"/>
<polygon fill="black" stroke="black" stroke-width="3" points="80.23,-85.61 90,-81.5 79.8,-78.62 80.23,-85.61"/>
</g>
<!-- n3&#45;&gt;c16 -->
<g id="edge10" class="edge">
<title>n3:e&#45;&gt;c16:w</title>
<path fill="none" stroke="black" stroke-width="3" d="M54,-85.5C100.06,-85.5 49.61,-175.67 79.84,-190.46"/>
<polygon fill="black" stroke="black" stroke-width="3" points="79.51,-193.96 90,-192.5 80.89,-187.1 79.51,-193.96"/>
</g>
<!-- n4 -->
<g id="node4" class="node">
<title>n4</title>
<polygon fill="none" stroke="black" points="54,-399.04 54,-413.96 38.18,-424.5 15.82,-424.5 0,-413.96 0,-399.04 15.82,-388.5 38.18,-388.5 54,-399.04"/>
<text text-anchor="middle" x="27" y="-402.8" font-family="Times,serif" font-size="14.00">b2</text>
</g>
<!-- n4&#45;&gt;c15 -->
<g id="edge11" class="edge">
<title>n4:e&#45;&gt;c15:w</title>
<path fill="none" stroke="black" stroke-width="3" d="M54,-406.5C98.52,-406.5 50.78,-319.71 80.16,-305.47"/>
<polygon fill="black" stroke="black" stroke-width="3" points="80.88,-308.89 90,-303.5 79.51,-302.03 80.88,-308.89"/>
</g>
<!-- n4&#45;&gt;c17 -->
<g id="edge12" class="edge">
<title>n4:e&#45;&gt;c17:w</title>
<path fill="none" stroke="black" stroke-width="3" d="M54,-406.5C66.42,-406.5 71.28,-411.09 80.03,-413.32"/>
<polygon fill="black" stroke="black" stroke-width="3" points="79.66,-416.8 90,-414.5 80.48,-409.85 79.66,-416.8"/>
</g>
<!-- n5 -->
<g id="node5" class="node">
<title>n5</title>
<polygon fill="none" stroke="black" points="307.14,-62.04 307.14,-76.96 289.8,-87.5 265.29,-87.5 247.95,-76.96 247.95,-62.04 265.29,-51.5 289.8,-51.5 307.14,-62.04"/>
<text text-anchor="middle" x="277.55" y="-65.8" font-family="Times,serif" font-size="14.00">c11</text>
</g>
<!-- n6 -->
<g id="node6" class="node">
<title>n6</title>
<polygon fill="none" stroke="black" points="307.14,-284.04 307.14,-298.96 289.8,-309.5 265.29,-309.5 247.95,-298.96 247.95,-284.04 265.29,-273.5 289.8,-273.5 307.14,-284.04"/>
<text text-anchor="middle" x="277.55" y="-287.8" font-family="Times,serif" font-size="14.00">c12</text>
</g>
<!-- n7 -->
<g id="node7" class="node">
<title>n7</title>
<polygon fill="none" stroke="black" points="307.14,-173.04 307.14,-187.96 289.8,-198.5 265.29,-198.5 247.95,-187.96 247.95,-173.04 265.29,-162.5 289.8,-162.5 307.14,-173.04"/>
<text text-anchor="middle" x="277.55" y="-176.8" font-family="Times,serif" font-size="14.00">c21</text>
</g>
<!-- n8 -->
<g id="node8" class="node">
<title>n8</title>
<polygon fill="none" stroke="black" points="307.14,-395.04 307.14,-409.96 289.8,-420.5 265.29,-420.5 247.95,-409.96 247.95,-395.04 265.29,-384.5 289.8,-384.5 307.14,-395.04"/>
<text text-anchor="middle" x="277.55" y="-398.8" font-family="Times,serif" font-size="14.00">c22</text>
</g>
<!-- n9 -->
<g id="node9" class="node">
<title>n9</title>
<polygon fill="none" stroke="black" points="54,-269.04 54,-283.96 38.18,-294.5 15.82,-294.5 0,-283.96 0,-269.04 15.82,-258.5 38.18,-258.5 54,-269.04"/>
<text text-anchor="middle" x="27" y="-272.8" font-family="Times,serif" font-size="14.00">clk</text>
</g>
<!-- n9&#45;&gt;c14 -->
<g id="edge17" class="edge">
<title>n9:e&#45;&gt;c14:w</title>
<path fill="none" stroke="black" d="M54,-276.5C148.79,-276.5 3.56,-74.28 79.6,-58.48"/>
<polygon fill="black" stroke="black" points="80.37,-61.92 90,-57.5 79.72,-54.95 80.37,-61.92"/>
</g>
<!-- n9&#45;&gt;c15 -->
<g id="edge18" class="edge">
<title>n9:e&#45;&gt;c15:w</title>
<path fill="none" stroke="black" d="M54,-276.5C66.04,-276.5 71.24,-278.19 79.86,-279.03"/>
<polygon fill="black" stroke="black" points="79.85,-282.53 90,-279.5 80.17,-275.54 79.85,-282.53"/>
</g>
<!-- n9&#45;&gt;c16 -->
<g id="edge19" class="edge">
<title>n9:e&#45;&gt;c16:w</title>
<path fill="none" stroke="black" d="M54,-276.5C100.64,-276.5 48.88,-184.72 80.15,-170.37"/>
<polygon fill="black" stroke="black" points="80.83,-173.81 90,-168.5 79.52,-166.93 80.83,-173.81"/>
</g>
<!-- n9&#45;&gt;c17 -->
<g id="edge20" class="edge">
<title>n9:e&#45;&gt;c17:w</title>
<path fill="none" stroke="black" d="M54,-276.5C103.19,-276.5 46.62,-374.21 80.11,-388.71"/>
<polygon fill="black" stroke="black" points="79.54,-392.16 90,-390.5 80.78,-385.27 79.54,-392.16"/>
</g>
<!-- n10 -->
<g id="node10" class="node">
<title>n10</title>
<polygon fill="none" stroke="black" points="54,-213.04 54,-227.96 38.18,-238.5 15.82,-238.5 0,-227.96 0,-213.04 15.82,-202.5 38.18,-202.5 54,-213.04"/>
<text text-anchor="middle" x="27" y="-216.8" font-family="Times,serif" font-size="14.00">rst</text>
</g>
<!-- n10&#45;&gt;c14 -->
<g id="edge3" class="edge">
<title>n10:e&#45;&gt;c14:w</title>
<path fill="none" stroke="black" d="M54,-220.5C134.42,-220.5 17.26,-50.84 79.92,-35.59"/>
<polygon fill="black" stroke="black" points="80.44,-39.06 90,-34.5 79.68,-32.1 80.44,-39.06"/>
</g>
<!-- n10&#45;&gt;c15 -->
<g id="edge4" class="edge">
<title>n10:e&#45;&gt;c15:w</title>
<path fill="none" stroke="black" d="M54,-220.5C72.38,-220.5 69.72,-244.27 80.21,-253.18"/>
<polygon fill="black" stroke="black" points="79.41,-256.6 90,-256.5 81.66,-249.97 79.41,-256.6"/>
</g>
<!-- n10&#45;&gt;c16 -->
<g id="edge5" class="edge">
<title>n10:e&#45;&gt;c16:w</title>
<path fill="none" stroke="black" d="M54,-220.5C86.79,-220.5 60.66,-161.53 80.1,-148.17"/>
<polygon fill="black" stroke="black" points="81.26,-151.48 90,-145.5 79.43,-144.72 81.26,-151.48"/>
</g>
<!-- n10&#45;&gt;c17 -->
<g id="edge6" class="edge">
<title>n10:e&#45;&gt;c17:w</title>
<path fill="none" stroke="black" d="M54,-220.5C117.32,-220.5 33.71,-350.78 79.82,-366.05"/>
<polygon fill="black" stroke="black" points="79.61,-369.55 90,-367.5 80.6,-362.62 79.61,-369.55"/>
</g>
<!-- c14&#45;&gt;n5 -->
<g id="edge13" class="edge">
<title>c14:e&#45;&gt;n5:w</title>
<path fill="none" stroke="black" stroke-width="3" d="M212,-69.5C224,-69.5 229.25,-69.5 237.88,-69.5"/>
<polygon fill="black" stroke="black" stroke-width="3" points="238,-73 248,-69.5 238,-66 238,-73"/>
</g>
<!-- c15&#45;&gt;n6 -->
<g id="edge14" class="edge">
<title>c15:e&#45;&gt;n6:w</title>
<path fill="none" stroke="black" stroke-width="3" d="M212,-291.5C224,-291.5 229.25,-291.5 237.88,-291.5"/>
<polygon fill="black" stroke="black" stroke-width="3" points="238,-295 248,-291.5 238,-288 238,-295"/>
</g>
<!-- c16&#45;&gt;n7 -->
<g id="edge15" class="edge">
<title>c16:e&#45;&gt;n7:w</title>
<path fill="none" stroke="black" stroke-width="3" d="M212,-180.5C224,-180.5 229.25,-180.5 237.88,-180.5"/>
<polygon fill="black" stroke="black" stroke-width="3" points="238,-184 248,-180.5 238,-177 238,-184"/>
</g>
<!-- c17&#45;&gt;n8 -->
<g id="edge16" class="edge">
<title>c17:e&#45;&gt;n8:w</title>
<path fill="none" stroke="black" stroke-width="3" d="M212,-402.5C224,-402.5 229.25,-402.5 237.88,-402.5"/>
<polygon fill="black" stroke="black" stroke-width="3" points="238,-406 248,-402.5 238,-399 238,-406"/>
</g>
</g>
</svg>
